<?xml version="1.0" encoding="UTF-8"?>
<svg id="Layer_1" xmlns="http://www.w3.org/2000/svg" version="1.1" viewBox="0 0 750 500">
  <!-- Generator: Adobe Illustrator 30.0.0, SVG Export Plug-In . SVG Version: 2.1.1 Build 123)  -->
  <defs>
    <style>
      .st0 {
        fill: none;
      }

      .st1 {
        fill: #e0e0e0;
      }

      .st2 {
        fill: #111;
      }

      .st3 {
        fill: #263238;
      }

      .st4 {
        fill: #129d63;
      }

      .st5 {
        fill: #fff;
      }

      .st6 {
        opacity: .3;
      }

      .st7 {
        fill: #bfbfbf;
      }

      .st8 {
        fill: #737373;
      }

      .st9 {
        fill: #9e9e9e;
      }

      .st10 {
        fill: #7acca7;
      }
    </style>
  </defs>
  <g id="freepik--Lamps--inject-56">
    <path class="st2" d="M607.8,89.1v-6.3h-14.6v6.3c-18.1,2-33.4,11.6-41.4,24.7h97.5c-8-13.2-23.3-22.7-41.4-24.7Z"/>
    <path class="st2" d="M649.3,114.3h-97.5c-.2,0-.3,0-.4-.2,0-.2,0-.4,0-.5,8.2-13.5,23.6-22.8,41.4-24.9v-5.8c0-.3.2-.5.5-.5h14.6c.3,0,.5.2.5.5v5.8c17.7,2.1,33.1,11.4,41.4,24.9,0,.2,0,.4,0,.5,0,.2-.2.2-.4.2ZM552.7,113.3h95.7c-8.2-13-23.3-21.8-40.6-23.7-.3,0-.5-.2-.5-.5v-5.8h-13.6v5.8c0,.3-.2.5-.5.5-17.3,1.9-32.3,10.8-40.6,23.7Z"/>
    <path class="st3" d="M600.5,82.6c-.3,0-.5-.2-.5-.5v-47.6c0-.3.2-.5.5-.5s.5.2.5.5v47.6c0,.3-.2.5-.5.5Z"/>
    <path class="st3" d="M104.5,89.1v-6.3h-14.6v6.3c-18.1,2-33.4,11.6-41.4,24.7h97.5c-8.1-13.2-23.4-22.7-41.5-24.7Z"/>
    <path class="st2" d="M146,114.3H48.5c-.2,0-.4-.1-.5-.3,0-.2,0-.4,0-.5,8.3-13.5,23.7-22.8,41.4-24.9v-5.8c0-.3.2-.5.5-.5h14.6c.3,0,.5.2.5.5v5.8c17.7,2.1,33.1,11.4,41.4,24.9,0,.2,0,.4,0,.5,0,.1-.2.2-.4.2ZM49.4,113.3h95.7c-8.2-13-23.3-21.8-40.6-23.7-.3,0-.5-.2-.4-.5v-5.8h-13.7v5.8c0,.3-.2.5-.4.5-17.3,1.9-32.4,10.8-40.6,23.7h0Z"/>
    <path class="st3" d="M97.2,82.6c-.3,0-.5-.2-.5-.5v-47.6c0-.3.2-.5.5-.5.3,0,.5.2.5.5v47.6c0,.3-.2.5-.5.5Z"/>
  </g>
  <g id="freepik--Windows--inject-56">
    <g class="st6">
      <rect x="156.6" y="41.9" width="1" height="385.7"/>
      <rect x="163" y="41.9" width="1" height="385.7"/>
      <rect x="374" y="41.9" width="1" height="385.7"/>
      <rect x="380.4" y="41.9" width="1" height="385.7"/>
      <rect x="576.9" y="41.9" width="1" height="385.7"/>
      <rect x="583.3" y="41.9" width="1" height="385.7"/>
      <rect x="256.1" y="90.3" width="90.5" height="1" transform="translate(24 239.7) rotate(-45)"/>
      <rect x="302.1" y="62.3" width="15.9" height="1" transform="translate(46.4 237.6) rotate(-45)"/>
      <rect x="402.7" y="209.9" width="57.5" height="1" transform="translate(-22.4 366.7) rotate(-45)"/>
      <rect x="438.8" y="189" width="41.6" height="1" transform="translate(.6 380.5) rotate(-45)"/>
    </g>
  </g>
  <g id="freepik--Plant--inject-56">
    <path class="st3" d="M657.8,452.7c-.6,0-1-.4-1-1V176.1c0-.6.4-1,1-1s1,.4,1,1v275.6c0,.6-.4,1-1,1Z"/>
    <path class="st3" d="M619.2,452.7c-.6,0-1-.4-1-1v-217.6c0-.6.4-1,1-1s1,.4,1,1v217.6c0,.6-.4,1-1,1Z"/>
    <path class="st3" d="M674.3,452.7c-.6,0-1-.4-1-1v-158.2c0-.6.4-1,1-1s1,.4,1,1v158.2c0,.6-.4,1-1,1Z"/>
    <path class="st3" d="M650.7,452.7c-.6,0-1-.4-1-1v-100.9c0-.6.4-1,1-1s1,.4,1,1v100.9c0,.6-.4,1-1,1Z"/>
    <path class="st4" d="M641.9,182.7l-45.3-20.6,38.2,4.7-23.5-16.5,29.4,9.4-17.6-38.8,21.8,25.9s1.8-28.8,1.8-31.8,7.1,19.4,7.1,19.4l10-38.8,1.8,35.9,8.2-7-1.2,22.3,28.8-32.3-15.9,38.2,15.9-4.7-10,17.1,28.8-1.2-24.1,14.2,20.6,1.2-30,7.6,5.3,7.1-22.4-8.9,10,13.5-20.6-12.9-21.2,11.2,4.1-14.1Z"/>
    <path class="st4" d="M635.1,379l-38.5-17.5,32.5,4-20-14,25,8-15-33,18.5,22s1.5-24.5,1.5-27,6,16.5,6,16.5l8.5-33,1.5,30.5,7-6-1,19,24.5-27.5-13.5,32.5,13.5-4-8.5,14.5,24.5-1-20.5,12,17.5,1-25.5,6.5,4.5,6-19-7.5,8.5,11.5-17.5-11-18,9.5,3.5-12Z"/>
    <path class="st4" d="M612.7,268.3l-47,16.2,31-22.9-28.4,4.2,27.8-13.4-39.5-16,33.6,3.8s-18.5-22.2-20.5-24.3,18.4,9.2,18.4,9.2l-19.4-35,26,24.8,1.1-10.8,14.5,17-1.3-43.2,14.8,38.7,8.3-14.3,4.5,19.3,20.1-20.7-7.8,26.8,15.8-13.3-16.5,26.2,8.7,1.5-22.3,9,16.6,2.9-23.8,4.8-7.7,22.7-6.7-13.1Z"/>
    <path class="st4" d="M659.4,304l-32.2-26.4,29.9,12-15.5-18.4,21.7,13.9-5.9-35.2,12,25.6s7.6-22.9,8.3-25.3,1.5,17.2,1.5,17.2l16.5-29.2-6.3,29.4,8.2-3.9-5.8,17.8,30.3-19.9-21.1,27.5,13.8-.4-11.8,11.6,23.5,5.3-22.5,6.2,16.4,5.4-25.8-.3,2.8,6.8-16.2-11.9,5.2,13.1-13.8-14.9-19.5,4.4,6.4-10.5Z"/>
  </g>
  <g id="freepik--Board--inject-56">
    <rect class="st3" x="147.1" y="348.6" width="10.7" height="103.3"/>
    <path class="st3" d="M157.8,452.4h-10.7c-.3,0-.5-.2-.5-.5v-103.3c0-.3.2-.5.5-.5h10.7c.3,0,.5.2.5.5v103.3c0,.3-.2.5-.5.5ZM147.6,451.4h9.7v-102.3h-9.7v102.3Z"/>
    <rect class="st3" x="363" y="348.6" width="10.7" height="103.3"/>
    <path class="st3" d="M373.7,452.4h-10.7c-.3,0-.5-.2-.5-.5v-103.3c0-.3.2-.5.5-.5h10.7c.3,0,.5.2.5.5v103.3c0,.3-.2.5-.5.5ZM363.5,451.4h9.7v-102.3h-9.7v102.3Z"/>
    <rect class="st5" x="129.8" y="130.4" width="258" height="222.3"/>
    <path class="st3" d="M387.8,353.1H129.8c-.3,0-.5-.2-.5-.5v-222.3c0-.3.2-.5.5-.5h258c.3,0,.5.2.5.5v222.3c0,.3-.2.5-.5.5ZM130.3,352.1h257v-221.3H130.3v221.3Z"/>
    <rect class="st3" x="129.8" y="352.6" width="258" height="9"/>
    <path class="st3" d="M387.8,362.1H129.8c-.3,0-.5-.2-.5-.5v-9c0-.3.2-.5.5-.5h258c.3,0,.5.2.5.5v9c0,.3-.2.5-.5.5ZM130.3,361.1h257v-8H130.3v8Z"/>
    <path class="st3" d="M300.5,319.7l-70.5,5.8c-2.2,0-4.1-1.6-4.5-3.8l-30-147.6c-.4-2.2-1.4-6.5,6.8-6.9l71.3-5.5c2.2,0,4.1,1.6,4.5,3.8l30.5,147.8c.4,2-1.8,6.1-8.1,6.3Z"/>
    <path class="st3" d="M229.7,326c-2.3-.1-4.3-1.9-4.7-4.2l-29.9-147.5c-.3-1.4-.7-3.4.6-5.1,1.1-1.5,3.3-2.3,6.7-2.4l71.3-5.5c2.5,0,4.6,1.7,5,4.2l30.4,147.8c.2,1.3-.2,2.7-1.1,3.7-.9,1.1-3,3.1-7.4,3.2l-70.5,5.8h-.3ZM273.9,162.3h-.2l-71.3,5.5c-3,.1-5,.8-6,2s-.7,3-.4,4.2l30,147.6c.3,2,2,3.4,4,3.4l70.5-5.8h0c4-.1,5.9-1.8,6.6-2.8.7-.8,1-1.8.9-2.9l-30.4-147.8c-.3-1.9-1.9-3.2-3.7-3.4Z"/>
    <path class="st5" d="M305.9,317l-70.5,5.8c-2.2,0-4.1-1.6-4.5-3.8l-30-147.6c-.5-2.2.8-4.2,2.9-4.4l70.5-5.8c2.2,0,4.1,1.6,4.5,3.8l30,147.6c.4,2.2-.8,4.2-2.9,4.4Z"/>
    <path class="st3" d="M235.1,323.3c-2.3-.1-4.3-1.9-4.7-4.2l-30-147.6c-.3-1.2,0-2.5.7-3.6.6-.8,1.6-1.4,2.6-1.4l70.5-5.8c2.5,0,4.6,1.8,5,4.2l30,147.6c.3,1.2,0,2.5-.7,3.6-.6.8-1.6,1.3-2.6,1.4l-70.5,5.8h-.3ZM274.5,161.8h-.2l-70.5,5.8c-.7,0-1.4.4-1.9,1-.6.8-.8,1.8-.5,2.8l30,147.6c.3,2,2,3.4,4,3.4l70.5-5.8h0c.7,0,1.4-.4,1.9-1,.6-.8.8-1.8.5-2.8l-30-147.6c-.3-1.9-1.9-3.2-3.8-3.4h0Z"/>
    <path class="st3" d="M246.2,173.1l-9.7.8c-.6,0-1.1-.4-1.2-1h0c-.1-.5.1-1,.6-1.2,0,0,0,0,.1,0l9.7-.8c.6,0,1.1.4,1.2,1h0c.1.5-.1,1-.6,1.2,0,0,0,0-.1,0Z"/>
    <path class="st4" d="M301.8,303.2l-68,5.6-26.9-132.4,16.1-1.3,2.1,1.5c.7.5,1.6.8,2.4.7l28.4-2.4c.8,0,1.6-.5,2.1-1.2l1.3-1.7,15.4-1.3,26.9,132.4Z"/>
    <path class="st3" d="M233.8,309.3c-.2,0-.4-.2-.5-.4l-26.9-132.4c0-.1,0-.3,0-.4,0-.1.2-.2.4-.2l16.1-1.3c.1,0,.2,0,.3,0l2.1,1.5c.6.4,1.4.7,2.1.6l28.5-2.4c.7,0,1.4-.4,1.8-1l1.3-1.7c0-.1.2-.2.4-.2l15.4-1.3c.3,0,.5.2.5.4l26.9,132.4c0,.3-.1.5-.4.6,0,0,0,0,0,0l-68,5.6h0ZM207.5,176.9l26.7,131.4,67-5.5-26.7-131.4-14.7,1.2-1.2,1.6c-.6.8-1.5,1.3-2.5,1.4l-28.4,2.4c-1,0-2-.2-2.8-.8l-2-1.4-15.4,1.3Z"/>
    <path class="st3" d="M270.8,309.9c-.2-.9-1-1.6-1.9-1.6-.8,0-1.3.8-1.2,1.6,0,0,0,.2,0,.2.2.9,1,1.6,1.9,1.6.8,0,1.3-.8,1.3-1.6,0,0,0-.2,0-.2Z"/>
    <path class="st5" d="M226.8,204.8l-7.3.6c-1.2,0-2.2-.9-2.4-2.1l-1.6-8.1c-.3-1,.3-2,1.2-2.3.1,0,.2,0,.3,0l7.3-.6c1.2,0,2.2.8,2.4,2l1.6,8.1c.3,1-.2,2-1.2,2.3-.1,0-.2,0-.4,0Z"/>
    <path class="st5" d="M219.4,205.9c-1.4,0-2.5-1.1-2.8-2.5l-1.6-8.1c-.2-.7,0-1.5.4-2.1.4-.5.9-.8,1.6-.9l7.3-.6c1.5,0,2.7,1,3,2.4l1.6,8.1c.2.7,0,1.5-.4,2.1-.4.5-.9.8-1.6.9h0l-7.3.6h-.2ZM224.4,192.8h-.1l-7.3.6c-.3,0-.7.2-.9.5-.3.4-.4.9-.2,1.3l1.6,8.1c.2.9,1,1.6,1.9,1.6l7.3-.6c.3,0,.7-.2.9-.5.3-.4.3-.9.2-1.3l-1.6-8.1c-.2-.9-.9-1.6-1.8-1.6h0Z"/>
    <path class="st5" d="M243,203.5l-7.3.6c-1.2,0-2.2-.9-2.4-2.1l-1.6-8c-.3-1,.3-2,1.3-2.3,0,0,.2,0,.3,0l7.3-.6c1.2,0,2.2.8,2.4,2l1.6,8.1c.3,1-.2,2-1.2,2.3-.1,0-.2,0-.3,0Z"/>
    <path class="st5" d="M235.6,204.6c-1.4,0-2.5-1.1-2.8-2.4l-1.6-8.1c-.2-.7,0-1.5.4-2.1.4-.5.9-.8,1.6-.9l7.3-.6c1.5,0,2.7,1,3,2.4l1.6,8.1c.2.7,0,1.5-.4,2.1-.4.5-.9.8-1.6.9h0l-7.3.6h-.2ZM240.6,191.5h-.1l-7.3.6c-.3,0-.6.2-.9.5-.3.4-.4.9-.2,1.3l1.6,8.1c.2.9,1,1.6,1.9,1.6l7.3-.6c.3,0,.6-.2.9-.5.3-.4.4-.9.2-1.3l-1.6-8.1c-.2-.9-.9-1.6-1.8-1.7h0Z"/>
    <path class="st5" d="M259.2,202.1l-7.3.6c-1.2,0-2.2-.9-2.4-2.1l-1.6-8.1c-.3-1,.3-2,1.2-2.3.1,0,.2,0,.3,0l7.3-.6c1.2,0,2.2.9,2.5,2.1l1.6,8.1c.3,1-.3,2-1.2,2.3,0,0-.2,0-.3,0Z"/>
    <path class="st5" d="M251.8,203.2c-1.4,0-2.5-1.1-2.8-2.5l-1.6-8.1c-.2-.7,0-1.5.4-2.1.4-.5.9-.8,1.6-.9l7.3-.6c1.5,0,2.7,1,3,2.4l1.6,8.1c.2.7,0,1.5-.4,2.1-.4.5-1,.8-1.6.9l-7.3.6h-.2ZM256.8,190.1h-.1l-7.3.6c-.3,0-.7.2-.9.5-.3.4-.3.9-.2,1.3l1.6,8.1c.2.9,1,1.6,1.9,1.7l7.3-.6c.3,0,.7-.2.9-.5.3-.4.3-.9.2-1.3l-1.6-8.1c-.2-.9-.9-1.6-1.8-1.7h0Z"/>
    <path class="st5" d="M275.5,200.8l-7.3.6c-1.2,0-2.2-.9-2.5-2.1l-1.6-8.1c-.3-1,.3-2,1.2-2.3,0,0,.2,0,.3,0l7.3-.6c1.2,0,2.2.8,2.5,2l1.6,8.1c.3,1-.2,2-1.2,2.4-.1,0-.2,0-.4,0Z"/>
    <path class="st5" d="M268.1,201.9c-1.4,0-2.5-1.1-2.8-2.5l-1.6-8.1c-.2-.7,0-1.5.4-2.1.4-.5.9-.8,1.6-.9l7.3-.6c1.5,0,2.7,1,3,2.4l1.6,8.1c.2.7,0,1.5-.4,2.1-.4.5-.9.8-1.6.9l-7.3.6h-.2ZM273.1,188.8h0l-7.3.6c-.3,0-.6.2-.9.5-.3.4-.4.9-.2,1.3l1.6,8.1c.2.9,1,1.6,1.9,1.6l7.3-.6c.3,0,.6-.2.9-.5.3-.4.4-.9.2-1.3l-1.6-8.1c-.2-.9-.9-1.6-1.8-1.7h0Z"/>
    <path class="st5" d="M230.6,223.4l-7.3.6c-1.2,0-2.2-.8-2.4-2l-1.6-8.1c-.3-1,.3-2,1.2-2.3,0,0,.2,0,.3,0l7.3-.6c1.2,0,2.2.9,2.4,2.1l1.6,8.1c.3,1-.3,2-1.3,2.3,0,0-.2,0-.2,0Z"/>
    <path class="st5" d="M223.1,224.5c-1.4,0-2.5-1.1-2.8-2.5l-1.6-8c-.2-.7,0-1.5.4-2.1.4-.5.9-.8,1.6-.9l7.3-.6c1.5,0,2.7,1,3,2.4l1.6,8.1c.2.7,0,1.5-.4,2.1-.4.5-.9.8-1.6.9h0l-7.3.6h-.2ZM228.1,211.4h-.1l-7.3.6c-.3,0-.7.2-.9.5-.3.4-.4.9-.2,1.3l1.6,8.1c.2.9,1,1.6,1.9,1.6l7.3-.6c.3,0,.6-.2.9-.5.3-.4.3-.9.2-1.3l-1.6-8.1c-.2-.9-.9-1.6-1.8-1.6h0Z"/>
    <path class="st5" d="M246.8,222l-7.3.6c-1.2,0-2.2-.8-2.4-2l-1.6-8.1c-.3-1,.3-2,1.3-2.3,0,0,.2,0,.3,0l7.3-.6c1.2,0,2.2.9,2.4,2.1l1.6,8.1c.3,1-.3,2-1.3,2.3,0,0-.2,0-.2,0Z"/>
    <path class="st5" d="M239.4,223.1c-1.4,0-2.5-1.1-2.8-2.4l-1.6-8.1c-.2-.7,0-1.5.4-2.1.4-.5.9-.8,1.6-.9l7.3-.6c1.5,0,2.7,1,3,2.4l1.6,8.1c.2.7,0,1.5-.4,2.1-.4.5-.9.8-1.6.9l-7.3.6h-.2ZM244.4,210h-.1l-7.3.6c-.3,0-.6.2-.9.5-.3.4-.4.9-.2,1.3l1.6,8.1c.2.9,1,1.6,1.9,1.6l7.3-.6c.3,0,.6-.2.9-.5.3-.4.4-.9.2-1.3l-1.6-8.1c-.1-.9-.9-1.6-1.8-1.7h0Z"/>
    <path class="st5" d="M279.2,219.4l-7.2.6c-1.2,0-2.2-.8-2.5-2l-1.6-8.1c-.3-1,.3-2,1.2-2.3,0,0,.2,0,.3,0l7.3-.6c1.2,0,2.2.9,2.5,2.1l1.6,8c.3,1-.3,2-1.3,2.3,0,0-.2,0-.2,0Z"/>
    <path class="st5" d="M271.8,220.5c-1.4,0-2.6-1.1-2.8-2.5l-1.6-8.1c-.2-.7,0-1.5.4-2.1.4-.5.9-.8,1.6-.9l7.3-.6c1.5,0,2.7,1,3,2.4l1.6,8.1c.2.7,0,1.5-.4,2.1-.4.5-.9.8-1.6.9l-7.3.6h-.2ZM276.8,207.3h-.1l-7.3.6c-.3,0-.6.2-.9.5-.3.4-.4.9-.2,1.3l1.6,8.1c.2.9,1,1.6,1.9,1.6l7.3-.6c.3,0,.6-.2.9-.5.3-.4.4-.9.2-1.3l-1.6-8.1c-.2-.9-.9-1.6-1.8-1.7h0Z"/>
    <path class="st5" d="M234.3,241.9l-7.3.6c-1.2,0-2.2-.9-2.4-2.1l-1.6-8.1c-.3-1,.3-2,1.2-2.3,0,0,.2,0,.3,0l7.3-.6c1.2,0,2.2.8,2.4,2l1.6,8.1c.3,1-.2,2-1.2,2.3-.1,0-.3,0-.4,0Z"/>
    <path class="st5" d="M226.9,243c-1.4,0-2.5-1.1-2.8-2.5l-1.6-8.1c-.2-.7,0-1.5.4-2.1.4-.5.9-.8,1.6-.9l7.3-.6c1.5,0,2.7,1,3,2.4l1.6,8.1c.2.7,0,1.5-.4,2.1-.4.5-.9.8-1.6.9l-7.3.6h-.2ZM231.9,229.9h-.1l-7.3.6c-.3,0-.6.2-.9.5-.3.4-.4.9-.2,1.3l1.6,8.1c.2,1,1,1.7,1.9,1.7l7.3-.6c.3,0,.6-.2.9-.5.3-.4.4-.9.2-1.3l-1.6-8.1c-.2-.9-.9-1.6-1.8-1.6h0Z"/>
    <path class="st5" d="M250.6,240.6l-7.3.6c-1.2,0-2.2-.9-2.4-2.1l-1.6-8.1c-.3-1,.3-2,1.3-2.3,0,0,.2,0,.3,0l7.3-.6c1.2,0,2.2.9,2.4,2.1l1.6,8.1c.3,1-.3,2-1.3,2.3,0,0-.2,0-.3,0Z"/>
    <path class="st5" d="M243.1,241.7c-1.4,0-2.6-1.1-2.8-2.5l-1.6-8.1c-.2-.7,0-1.5.4-2.1.4-.5.9-.8,1.6-.9l7.3-.6c1.5,0,2.7,1,3,2.4l1.6,8.1c.2.7,0,1.5-.4,2.1-.4.5-.9.8-1.6.9h0l-7.3.6h-.2ZM248.1,228.6h-.1l-7.3.6c-.3,0-.6.2-.9.5-.3.4-.4.9-.2,1.3l1.6,8.1c.2.9,1,1.6,1.9,1.6l7.3-.6c.3,0,.6-.2.9-.5.3-.4.4-.9.2-1.3l-1.6-8.1c-.2-.9-.9-1.6-1.8-1.7h0Z"/>
    <path class="st5" d="M266.8,239.2l-7.3.6c-1.2,0-2.2-.9-2.5-2.1l-1.6-8.1c-.3-1,.3-2,1.2-2.3.1,0,.2,0,.3,0l7.3-.6c1.2,0,2.2.8,2.5,2l1.6,8.1c.3,1-.2,2-1.2,2.3-.1,0-.2,0-.4,0Z"/>
    <path class="st5" d="M259.4,240.4c-1.4,0-2.5-1.1-2.8-2.5l-1.6-8.1c-.2-.7,0-1.5.4-2.1.4-.5.9-.8,1.6-.9l7.3-.6c1.5,0,2.7,1,3,2.4l1.6,8.1c.2.7,0,1.5-.4,2.1-.4.5-1,.8-1.6.9l-7.3.6h-.2ZM264.4,227.2h-.1l-7.3.6c-.3,0-.7.2-.9.5-.3.4-.3.9-.2,1.3l1.6,8.1c.2.9,1,1.6,1.9,1.6l7.3-.6c.3,0,.7-.2.9-.5.3-.4.3-.9.2-1.3l-1.6-8.1c-.2-.9-.9-1.6-1.8-1.7h0Z"/>
    <path class="st5" d="M283,237.9l-7.3.6c-1.2,0-2.2-.9-2.5-2.1l-1.6-8.1c-.3-1,.3-2,1.2-2.3,0,0,.2,0,.3,0l7.3-.6c1.2,0,2.2.8,2.5,2l1.6,8.1c.3,1-.2,2-1.2,2.4-.1,0-.2,0-.4,0Z"/>
    <path class="st5" d="M275.6,239c-1.4,0-2.5-1.1-2.8-2.4l-1.6-8.1c-.2-.7,0-1.5.4-2.1.4-.5.9-.8,1.6-.9l7.3-.6c1.5,0,2.7,1,3,2.4l1.6,8.1c.2.7,0,1.5-.4,2.1-.4.5-.9.8-1.6.9l-7.3.6h-.2ZM280.6,225.9h-.1l-7.3.6c-.3,0-.6.2-.9.5-.3.4-.4.9-.2,1.3l1.6,8.1c.2.9,1,1.6,1.9,1.6l7.3-.6c.3,0,.6-.2.9-.5.3-.4.4-.9.2-1.3l-1.6-8.1c-.1-.9-.9-1.6-1.8-1.7h0Z"/>
    <path class="st5" d="M238.1,260.5l-7.3.6c-1.2,0-2.2-.9-2.4-2l-1.6-8c-.3-1,.3-2,1.2-2.3,0,0,.2,0,.3,0l7.3-.6c1.2,0,2.2.8,2.4,2l1.6,8.1c.3,1-.2,2-1.2,2.3-.1,0-.2,0-.3,0Z"/>
    <path class="st5" d="M230.7,261.6c-1.4,0-2.5-1.1-2.8-2.5l-1.6-8.1c-.2-.7,0-1.5.4-2.1.4-.5.9-.8,1.6-.9l7.3-.6c1.5,0,2.7,1,3,2.4l1.6,8.1c.2.7,0,1.5-.4,2.1-.4.5-.9.8-1.6.9l-7.3.6h-.2ZM235.7,248.5h-.1l-7.3.6c-.3,0-.6.2-.9.5-.3.4-.4.9-.2,1.3l1.6,8.1c.2.9,1,1.6,1.9,1.6l7.3-.6c.3,0,.6-.2.9-.5.3-.4.4-.9.2-1.3l-1.6-8.1c-.2-.9-.9-1.6-1.8-1.6h0Z"/>
    <path class="st5" d="M254.3,259.1l-7.3.6c-1.2,0-2.2-.9-2.4-2.1l-1.6-8.1c-.3-1,.3-2,1.2-2.3,0,0,.2,0,.3,0l7.3-.6c1.2,0,2.2.9,2.4,2.1l1.6,8.1c.3,1-.3,2-1.3,2.3-.1,0-.2,0-.3,0Z"/>
    <path class="st5" d="M246.9,260.2c-1.4,0-2.6-1.1-2.8-2.5l-1.6-8.1c-.2-.7,0-1.5.4-2.1.4-.5.9-.8,1.6-.9l7.3-.6c1.5,0,2.7,1,3,2.4l1.6,8.1c.2.7,0,1.5-.4,2.1-.4.5-.9.8-1.6.9l-7.3.6h-.2ZM251.9,247.1h-.1l-7.3.6c-.3,0-.6.2-.9.5-.3.4-.4.9-.2,1.3l1.6,8.1c.2.9,1,1.6,1.9,1.7l7.3-.6c.3,0,.6-.2.9-.5.3-.4.4-.9.2-1.3l-1.6-8.1c-.2-.9-.9-1.6-1.8-1.7h0Z"/>
    <path class="st5" d="M270.5,257.8l-7.3.6c-1.2,0-2.2-.9-2.5-2l-1.6-8.1c-.3-1,.3-2,1.2-2.3.1,0,.2,0,.3,0l7.3-.6c1.2,0,2.2.9,2.5,2.1l1.6,8.1c.3,1-.3,2-1.2,2.3,0,0-.2,0-.3,0Z"/>
    <path class="st5" d="M263.1,258.9c-1.4,0-2.5-1.1-2.8-2.5l-1.6-8.1c-.2-.7,0-1.5.4-2.1.4-.5,1-.8,1.6-.9l7.3-.6c1.5,0,2.7,1,3,2.4l1.6,8.1c.2.7,0,1.5-.4,2.1-.4.5-.9.8-1.6.9h0l-7.3.6h-.2ZM268.1,245.8h-.1l-7.3.6c-.3,0-.7.2-.9.5-.3.4-.3.9-.2,1.3l1.6,8.1c.2.9,1,1.6,1.9,1.6l7.3-.6c.3,0,.7-.2.9-.5.3-.4.3-.9.2-1.3l-1.6-8.1c-.2-.9-.9-1.6-1.8-1.7h0Z"/>
    <path class="st5" d="M286.8,256.5l-7.3.6c-1.2,0-2.2-.9-2.5-2.1l-1.6-8.1c-.3-1,.3-2,1.2-2.3,0,0,.2,0,.3,0l7.3-.6c1.2,0,2.2.9,2.5,2l1.6,8.1c.3,1-.3,2-1.3,2.3,0,0-.2,0-.3,0Z"/>
    <path class="st5" d="M279.4,257.5c-1.4,0-2.5-1.1-2.8-2.4l-1.6-8.1c-.2-.7,0-1.5.4-2.1.4-.5.9-.8,1.6-.9l7.3-.6c1.5,0,2.7,1,3,2.4l1.6,8.1c.2.7,0,1.5-.4,2.1-.4.5-.9.8-1.6.9l-7.3.6h-.2ZM284.4,244.4h-.1l-7.3.6c-.3,0-.6.2-.9.5-.3.4-.4.9-.2,1.3l1.6,8.1c.2.9,1,1.6,1.9,1.6l7.3-.6c.3,0,.6-.2.9-.5.3-.4.4-.9.2-1.3l-1.6-8.1c-.1-.9-.9-1.6-1.8-1.7h0Z"/>
    <path class="st5" d="M241.9,279l-7.3.6c-1.2,0-2.2-.9-2.4-2l-1.6-8.1c-.3-1,.3-2,1.2-2.3,0,0,.2,0,.3,0l7.3-.6c1.2,0,2.2.9,2.4,2l1.6,8.1c.3,1-.3,2-1.2,2.3,0,0-.2,0-.3,0Z"/>
    <path class="st5" d="M234.4,280.1c-1.4,0-2.5-1.1-2.8-2.5l-1.7-8.1c-.2-.7,0-1.5.4-2.1.4-.5.9-.8,1.6-.9l7.3-.6c1.5,0,2.7,1,3,2.5l1.6,8.1c.2.7,0,1.5-.4,2.1-.4.5-.9.8-1.6.9h0l-7.3.6h-.2ZM239.4,267h-.1l-7.3.6c-.3,0-.6.2-.9.5-.3.4-.4.9-.2,1.3l1.6,8.1c.2.9,1,1.6,1.9,1.6l7.3-.6c.3,0,.6-.2.9-.5.3-.4.4-.9.2-1.3l-1.6-8.1c-.1-.9-.9-1.6-1.8-1.7h0Z"/>
    <path class="st5" d="M258.1,277.7l-7.3.6c-1.2,0-2.2-.9-2.4-2.1l-1.6-8.1c-.3-1,.3-2,1.2-2.3,0,0,.2,0,.3,0l7.3-.6c1.2,0,2.2.9,2.4,2.1l1.6,8.1c.3,1-.3,2-1.2,2.3,0,0-.2,0-.3,0Z"/>
    <path class="st5" d="M250.7,278.8c-1.4,0-2.5-1.1-2.8-2.5l-1.6-8.1c-.2-.7,0-1.5.4-2.1.4-.5.9-.8,1.6-.9l7.3-.6c1.5,0,2.7,1,3,2.5l1.6,8.1c.2.7,0,1.5-.4,2.1-.4.5-.9.8-1.6.9l-7.3.6h-.2ZM255.7,265.7h-.1l-7.3.6c-.3,0-.6.2-.9.5-.3.4-.4.9-.2,1.3l1.6,8.1c.2.9,1,1.6,1.9,1.7l7.3-.6c.3,0,.6-.2.9-.5.3-.4.4-.9.2-1.3l-1.6-8.1c-.1-.9-.9-1.6-1.8-1.7h0Z"/>
    <path class="st5" d="M274.3,276.3l-7.3.6c-1.2,0-2.2-.9-2.5-2l-1.6-8.1c-.3-1,.3-2,1.2-2.3,0,0,.2,0,.3,0l7.3-.6c1.2,0,2.2.9,2.5,2l1.6,8.1c.3,1-.3,2-1.3,2.3-.1,0-.2,0-.3,0Z"/>
    <path class="st5" d="M266.9,277.5c-1.4,0-2.5-1.1-2.8-2.5l-1.6-8.1c-.2-.7,0-1.5.4-2.1.4-.5.9-.8,1.6-.9l7.3-.6c1.5,0,2.7,1,3,2.5l1.6,8.1c.2.7,0,1.5-.4,2.1-.4.5-.9.8-1.6.9h0l-7.3.6h-.2ZM271.9,264.3h-.1l-7.3.6c-.3,0-.7.2-.9.5-.3.4-.3.9-.2,1.3l1.6,8.1c.2.9,1,1.6,1.9,1.6l7.3-.6c.3,0,.7-.2.9-.5.3-.4.3-.9.2-1.3l-1.6-8.1c-.1-.9-.9-1.6-1.8-1.7h0Z"/>
    <path class="st5" d="M290.6,275l-7.3.6c-1.2,0-2.2-.9-2.5-2l-1.6-8.1c-.3-1,.3-2,1.2-2.3,0,0,.2,0,.3,0l7.3-.6c1.2,0,2.2.9,2.5,2l1.6,8.1c.3,1-.3,2-1.3,2.3,0,0-.2,0-.3,0Z"/>
    <path class="st5" d="M283.1,276.1c-1.4,0-2.5-1.1-2.8-2.5l-1.6-8.1c-.2-.7,0-1.5.4-2.1.4-.5.9-.8,1.6-.9l7.3-.6c1.5,0,2.7,1,3,2.5l1.6,8.1c.2.7,0,1.5-.4,2.1-.4.5-.9.8-1.6.9h0l-7.3.6h-.2ZM288.1,263h-.1l-7.3.6c-.3,0-.6.2-.9.5-.3.4-.4.9-.2,1.3l1.6,8.1c.2.9,1,1.6,1.9,1.6l7.3-.6c.3,0,.6-.2.9-.5.3-.4.4-.9.2-1.3l-1.6-8.1c-.2-.9-.9-1.6-1.8-1.6h0Z"/>
    <path class="st10" d="M245.6,297.6l-7.3.6c-1.2,0-2.2-.9-2.4-2l-1.6-8.1c-.3-1,.3-2,1.2-2.3,0,0,.2,0,.3,0l7.3-.6c1.2,0,2.2.9,2.4,2l1.6,8.1c.3,1-.3,2-1.2,2.3,0,0-.2,0-.3,0Z"/>
    <path class="st10" d="M261.9,296.2l-7.3.6c-1.2,0-2.2-.9-2.4-2.1l-1.6-8.1c-.3-1,.3-2,1.2-2.3,0,0,.2,0,.3,0l7.3-.6c1.2,0,2.2.9,2.5,2.1l1.6,8.1c.3,1-.3,2-1.2,2.3,0,0-.2,0-.3,0Z"/>
    <path class="st10" d="M278.1,294.9l-7.3.6c-1.2,0-2.2-.9-2.5-2l-1.6-8.1c-.3-1,.3-2,1.2-2.3,0,0,.2,0,.3,0l7.3-.6c1.2,0,2.2.9,2.5,2l1.6,8.1c.3,1-.3,2-1.2,2.3,0,0-.2,0-.3,0Z"/>
    <path class="st10" d="M294.3,293.5l-7.3.6c-1.2,0-2.2-.8-2.5-2l-1.6-8.1c-.3-1,.3-2,1.2-2.3,0,0,.2,0,.3,0l7.3-.6c1.2,0,2.2.9,2.5,2.1l1.6,8.1c.3,1-.3,2-1.2,2.3-.1,0-.2,0-.3,0Z"/>
    <path class="st3" d="M253,228.2c-2.4-.2-4.4-1.9-4.8-4.3l-3.3-16.4c-.3-1.2,0-2.5.7-3.6.6-.8,1.5-1.3,2.6-1.4l14.8-1.2c2.5,0,4.7,1.8,5.1,4.3l3.3,16.4c.3,1.2,0,2.5-.7,3.6-.6.8-1.5,1.3-2.5,1.4h0l-14.8,1.2h-.3ZM263.2,201.5h-.3l-14.8,1.2c-.9,0-1.8.5-2.4,1.3-.7,1-.9,2.2-.7,3.4l3.3,16.4c.4,2.4,2.5,4.1,4.9,4.1l14.8-1.2c.9,0,1.8-.6,2.4-1.3.7-1,.9-2.2.7-3.4l-3.3-16.4c-.4-2.2-2.3-3.9-4.5-4.1h0Z"/>
    <path class="st3" d="M253.8,226.4c-2.1-.1-3.8-1.7-4.2-3.8l-2.8-14c-.3-1.1,0-2.3.6-3.2.5-.7,1.4-1.2,2.3-1.3l12.6-1c2.2,0,4.1,1.6,4.5,3.8l2.8,14c.2,1.1,0,2.3-.6,3.2-.5.7-1.4,1.2-2.3,1.2l-12.6,1h-.3ZM262.5,203.6h-.2l-12.6,1c-.8,0-1.5.4-1.9,1.1-.6.8-.8,1.8-.5,2.8l2.8,14c.3,2,2,3.4,4,3.4l12.6-1c.8,0,1.5-.4,1.9-1.1.6-.8.8-1.8.5-2.8l-2.8-14c-.3-1.8-1.9-3.2-3.8-3.4Z"/>
    <path class="st3" d="M254.7,223.9c-1.7-.1-3.1-1.4-3.4-3.1l-2.2-10.8c-.2-.9,0-1.8.5-2.6.5-.6,1.1-1,1.9-1l9.7-.8c1.8,0,3.3,1.2,3.7,3l2.2,10.8c.2.9,0,1.8-.5,2.6-.5.6-1.1,1-1.9,1l-9.7.8h-.2ZM261.5,206.3h-.2l-9.7.8c-.5,0-1,.3-1.4.7-.4.6-.5,1.3-.4,2l2.2,10.8c.2,1.4,1.5,2.4,2.9,2.4l9.7-.8c.5,0,1-.3,1.4-.8.4-.6.6-1.3.4-2l-2.2-10.8c-.2-1.3-1.4-2.3-2.7-2.4h0Z"/>
    <path class="st10" d="M263,220.7l-7.3.6c-1.2,0-2.2-.8-2.4-2l-1.6-8.1c-.3-1,.3-2,1.2-2.3.1,0,.2,0,.3,0l7.3-.6c1.2,0,2.2.9,2.5,2.1l1.6,8.1c.3,1-.3,2-1.3,2.3,0,0-.2,0-.2,0Z"/>
    <polygon class="st3" points="311 213.9 274.3 213.9 274.3 212.9 310.6 212.9 331.4 192.6 332.1 193.4 311 213.9"/>
    <rect class="st3" x="336.8" y="192.9" width="23.1" height="1"/>
    <rect class="st3" x="336.8" y="198.2" width="23.1" height="1"/>
    <rect class="st3" x="336.8" y="203.6" width="23.1" height="1"/>
    <rect class="st3" x="155.9" y="192.9" width="23.1" height="1"/>
    <rect class="st3" x="155.9" y="198.2" width="23.1" height="1"/>
    <rect class="st3" x="155.9" y="203.6" width="23.1" height="1"/>
    <rect class="st3" x="204.3" y="142.7" width="123.5" height="1"/>
    <rect class="st3" x="179.6" y="148" width="172.9" height="1"/>
    <rect class="st3" x="204.3" y="153.4" width="123.5" height="1"/>
    <rect class="st3" x="155.9" y="227.4" width="23.1" height="1"/>
    <rect class="st3" x="155.9" y="232.7" width="23.1" height="1"/>
    <rect class="st3" x="155.9" y="238.1" width="23.1" height="1"/>
    <rect class="st3" x="286.9" y="330.3" width="23.1" height="1"/>
    <rect class="st3" x="286.9" y="335.6" width="23.1" height="1"/>
    <rect class="st3" x="286.9" y="341" width="23.1" height="1"/>
    <polygon class="st3" points="283 337.3 270.4 337.3 270.4 314.8 271.4 314.8 271.4 336.3 283 336.3 283 337.3"/>
    <rect class="st3" x="180.5" y="204.3" width="19.6" height="1"/>
    <rect class="st3" x="336" y="252.7" width="23.1" height="1"/>
    <rect class="st3" x="336" y="258" width="23.1" height="1"/>
    <rect class="st3" x="336" y="263.4" width="23.1" height="1"/>
    <circle class="st4" cx="347.4" cy="232.2" r="14.6"/>
    <rect class="st3" x="179.2" y="317.5" width="23.1" height="1"/>
    <rect class="st3" x="179.2" y="322.8" width="23.1" height="1"/>
    <rect class="st3" x="179.2" y="328.1" width="23.1" height="1"/>
    <circle class="st4" cx="190.7" cy="297" r="14.6"/>
  </g>
  <g id="freepik--character-2--inject-56">
    <path class="st3" d="M512.7,452l14.3-66.5c.6-3.1-1.5-6.1-4.6-6.7-.4,0-.7-.1-1.1-.1h-10.6c-2.6,0-4.8,1.7-5.5,4.1l-16.2,69.2h23.7Z"/>
    <path class="st3" d="M512.7,452.5h-23.7c-.3,0-.5-.2-.5-.5,0,0,0,0,0-.1l16.2-69.2c.8-2.7,3.2-4.5,6-4.5h10.6c3.5,0,6.3,2.8,6.3,6.3,0,.4,0,.8-.1,1.2l-14.2,66.5c0,.2-.2.4-.4.4ZM489.7,451.5h22.7l14.2-66.1c.5-2.9-1.3-5.6-4.2-6.1-.3,0-.7,0-1,0h-10.6c-2.3,0-4.4,1.5-5,3.8l-16,68.5Z"/>
    <path class="st8" d="M428.5,376.5l-5.9,19.3s-9.7,19.9-17.6,28-15.7,27.8-15.7,27.8h46.9l-7.7-75.1Z"/>
    <path class="st3" d="M436.3,452.1h-46.9c-.2,0-.3,0-.4-.2,0-.1-.1-.3,0-.5.3-.8,8-19.9,15.8-28s17.4-27.6,17.5-27.9l5.8-19.3c0-.3.3-.5.5-.5.3,0,.5.3.5.5l7.7,75.1c0,.1,0,.3-.1.4,0,.1-.2.2-.4.2ZM390.1,451.1h45.6l-7.4-72.1-5.1,17c-.1.3-9.9,20.1-17.7,28.2-6.9,7-13.8,23.4-15.3,26.9Z"/>
    <path class="st9" d="M464.3,330s22.9,7.6,24.2,10.3,13.7,18,19.1,46.7,4.5,64,4.5,64h-89.7s3.1-41.6,3.6-46.1-.2-27.1,1.6-34.1,3.8-14.1,3.8-14.1l30.7-25.8,2.3-.9Z"/>
    <path class="st3" d="M512.1,451.5h-89.7c-.1,0-.3,0-.4-.2,0-.1-.1-.2-.1-.4,0-.4,3.1-41.6,3.6-46.1.1-1.5.2-5,.2-9,0-8.6.2-20.4,1.4-25.1,1.8-6.9,3.8-14.1,3.8-14.1,0,0,0-.2.2-.2l30.7-25.8h.1c0,0,2.3-1,2.3-1,.1,0,.2,0,.3,0,2.4.8,23.1,7.8,24.5,10.6.2.4.6,1.1,1.3,2,3.6,5.5,13.2,20.3,17.9,44.8,5.3,28.4,4.5,63.8,4.5,64.1,0,.3-.2.5-.5.5ZM422.9,450.5h88.7c0-4.4.5-36.9-4.5-63.4-4.6-24.3-14.1-38.9-17.7-44.4-.7-1-1.1-1.7-1.3-2.1-.9-1.8-15-7.1-23.8-10l-2,.8-30.5,25.6c-.3,1.1-2.1,7.6-3.8,14-1.2,4.6-1.3,16.3-1.4,24.9,0,4.3,0,7.6-.2,9.1-.5,4.1-3.2,40.6-3.5,45.5Z"/>
    <path class="st3" d="M429.3,416.3c0,0-.1,0-.2,0-.3-.1-.4-.4-.3-.6,0,0,0,0,0,0l1.3-3.1c0-.3.4-.4.6-.3,0,0,0,0,0,0,.3.1.4.4.3.6,0,0,0,0,0,0l-1.3,3.1c0,.2-.3.3-.5.3Z"/>
    <path class="st3" d="M431.9,410.1c0,0-.1,0-.2,0-.3-.1-.4-.4-.3-.6,0,0,0,0,0,0l12.6-31-4.3-9.1c0-.1,0-.3,0-.4,0-.1.2-.2.3-.3l6.3-2.4,23.5-31.4c.2-.2.5-.3.7-.1s.3.5.1.7c0,0,0,0,0,0l-23.6,31.5c0,0-.1.1-.2.2l-5.9,2.3,4.2,8.9c0,.1,0,.3,0,.4l-12.7,31.2c0,.2-.3.3-.5.3Z"/>
    <path class="st5" d="M437.8,360.3s-.2,7.4-3.6,21.8-9.2,37.7-9.2,37.7c0,0-.9-35,.7-44.6,1.1-6.3,3-12.5,5.6-18.4l6.5,3.6Z"/>
    <path class="st3" d="M425.1,420.2h0c-.2,0-.4-.2-.5-.5,0-1.4-.9-35.1.7-44.7,1.1-6.4,3-12.6,5.6-18.5,0-.1.2-.2.3-.3.1,0,.3,0,.4,0l6.5,3.6c.2,0,.3.3.3.5,0,0-.3,7.6-3.6,21.9s-9.1,37.4-9.2,37.7c0,.2-.2.4-.5.4ZM431.6,357.4c-2.4,5.7-4.2,11.7-5.3,17.8-1.2,7.6-.9,31.5-.8,40.8,1.8-7.1,5.8-23.2,8.3-34,2.9-12.5,3.5-19.8,3.6-21.4l-5.8-3.2Z"/>
    <path class="st4" d="M435.6,361.4l-3.6,6.3v23.5l-7,28.5s-.7-26.7-.7-33,4.9-19.5,4.9-19.5l-1.1-7.4,3.1-3.1,4.3,4.7Z"/>
    <path class="st3" d="M425.1,420.2h0c-.2,0-.4-.2-.5-.5,0-.3-.7-26.8-.7-33s4.4-18.1,4.9-19.6l-1.1-7.3c0-.2,0-.3.1-.4l3.1-3.1c.1,0,.2-.1.4-.1.1,0,.3,0,.4.2l4.3,4.7c.1.2.2.4,0,.6l-3.5,6.2v23.4s0,0,0,.1l-7,28.5c0,.2-.3.4-.5.4ZM428.7,360l1.1,7.1c0,0,0,.2,0,.2,0,.1-4.9,13.2-4.9,19.3s.4,21.6.6,29.2l6-24.8v-23.5c0,0,0-.2,0-.2l3.4-6-3.7-4-2.6,2.6Z"/>
    <polygon class="st5" points="437.4 340.6 423.7 353.6 430.7 362.6 441.4 346.2 437.4 340.6"/>
    <path class="st3" d="M430.7,363.1c-.2,0-.3,0-.4-.2l-7-9c-.2-.2-.1-.5,0-.7l13.7-13c.1,0,.2-.1.4-.1.1,0,.3,0,.4.2l4,5.6c.1.2.1.4,0,.6l-10.8,16.4c0,.1-.2.2-.4.2h0ZM424.4,353.6l6.2,8.1,10.2-15.5-3.5-4.9-12.9,12.3Z"/>
    <polygon class="st5" points="423.7 353.6 422.1 365 428.2 359.9 423.7 353.6"/>
    <path class="st3" d="M422.1,365.5c0,0-.2,0-.2,0-.2,0-.3-.3-.2-.5l1.6-11.4c0-.3.3-.5.6-.4.1,0,.3,0,.3.2l4.5,6.3c.1.2.1.5,0,.7l-6,5.1c-.1,0-.2.1-.4.1ZM424,354.9l-1.2,8.9,4.7-4-3.5-4.9Z"/>
    <path class="st5" d="M423.3,279.3s-8,7.1-9.2,12.2-.9,10-2,12-5.6,5.1-5.1,7,4.6,3.2,4.9,5.2-.2,11.4-.8,12.5-.9,3.1,1,5.4,7.4,3.2,7.4,3.2l17.2,10.7,18.6-19.1s3.7-5.1-.2-17.6-12.5-23.4-18.9-26.3c-4.2-1.9-8.6-3.6-13-5.1Z"/>
    <path class="st3" d="M436.7,347.9c0,0-.2,0-.3,0l-17.1-10.6c-.8-.1-5.8-1.1-7.6-3.4-2.3-2.8-1.5-5.1-1.1-6s1-10.2.8-12.2c-.1-.8-1.2-1.6-2.2-2.3s-2.4-1.6-2.6-2.8c-.4-1.5,1.4-3.3,3.1-5,.8-.7,1.5-1.5,2.1-2.4.6-1,.8-2.9,1-5.1.2-2.3.5-4.5,1-6.7,1.2-5.2,9-12.1,9.4-12.5.1-.1.3-.1.5-.1,4.4,1.5,8.8,3.2,13,5.1,6.2,2.9,15.1,13.6,19.1,26.6,3.9,12.6.3,17.9.1,18.1l-18.7,19.2c-.1,0-.2.1-.4.1ZM423.5,279.9c-1.3,1.2-7.8,7.3-8.8,11.7-.5,2.2-.8,4.4-1,6.6-.2,2.4-.4,4.3-1.1,5.5-.7.9-1.4,1.8-2.3,2.6-1.4,1.4-3.1,3.1-2.8,4.1.2.8,1.2,1.5,2.2,2.2,1.2.9,2.5,1.8,2.6,3,.2,1.8-.2,11.5-.9,12.8-.4.9-.9,2.6.9,4.9s7,3,7.1,3c0,0,.1,0,.2,0l16.9,10.5,18.4-18.9h0s3.4-5-.3-17.1c-4-12.8-12.6-23.2-18.6-26-5.5-2.5-11.3-4.5-12.6-4.9h0Z"/>
    <path class="st3" d="M421.6,299.5c-.2,0-.4-.2-.5-.4-1.4-4.8-5.5-3.7-5.7-3.7-.3,0-.5,0-.6-.3,0,0,0,0,0,0,0-.3,0-.5.3-.6,1.4-.3,2.8-.2,4.1.5,1.4.9,2.4,2.3,2.8,3.9,0,.3,0,.5-.3.6h-.1Z"/>
    <path class="st3" d="M415.1,302.1c0,1.5.5,2.7,1.2,2.7s1.2-1.2,1.3-2.6-.5-2.7-1.2-2.7-1.2,1.2-1.3,2.7Z"/>
    <path class="st3" d="M413.6,320.3c-.3,0-.5-.2-.5-.4,0-.3.2-.5.4-.6,0,0,0,0,0,0,1.9-.2,3.7-.8,5.3-1.9.2-.2.5-.2.7,0,0,0,0,0,0,0,.2.2.1.5,0,.7-1.7,1.2-3.7,1.9-5.8,2.1h0Z"/>
    <path class="st3" d="M440.4,328.6c0,0-.2,0-.3,0-.2-.1-.3-.4-.2-.7,0,0,0,0,0,0,1-1.6,1.8-3.3,2.5-5,0-.3.4-.4.6-.3l2.3.6c.3,0,.4.4.3.6,0,.3-.3.4-.6.3,0,0,0,0,0,0l-1.8-.5c-.7,1.7-1.5,3.3-2.4,4.8-.1.1-.3.2-.4.2Z"/>
    <polygon class="st5" points="457.8 326 428.4 354.9 436.9 365.5 464.3 330 457.8 326"/>
    <path class="st3" d="M436.9,366c-.1,0-.3,0-.4-.2l-8.6-10.6c-.2-.2-.2-.5,0-.7l29.4-28.9c.2-.2.4-.2.6,0l6.5,4c.1,0,.2.2.2.3,0,.1,0,.3,0,.4l-27.4,35.4c0,.1-.2.2-.4.2h0ZM429.1,355l7.8,9.7,26.6-34.5-5.7-3.5-28.8,28.3Z"/>
    <path class="st5" d="M395.5,429.6l-11.2-.5s-7.1-7.9-9.2-8.1-4.9.4-5.2,1.6-1.8,5.4-1.8,5.4c0,0-6.5,2-7.3,3s-1.4,5.4-.4,6.1,3.1,1.4,3.6,2,2.8,8,5.4,10.4,2,3.1,8.3,3.2c3.9,0,7.8-.2,11.6-.8,2-.3,6.3-.4,6.3-.4l-.2-22Z"/>
    <path class="st3" d="M379.1,453.2h-1.3c-5.2,0-5.9-.6-7.6-2.3-.3-.3-.6-.7-1.1-1.1-1.9-1.8-3.6-6-4.6-8.5-.2-.6-.5-1.3-.8-1.9-.5-.4-1-.6-1.5-.9-.7-.3-1.4-.7-2-1.1-.8-.6-.8-2.2-.7-3.4,0-1.2.4-2.4.9-3.4.8-1,5.8-2.6,7.3-3.1.3-.9,1.5-4.2,1.7-5.1.4-1.6,3.6-2.1,5.8-1.9s7.9,6.5,9.4,8.1l11,.5c.3,0,.5.2.5.5l.2,22c0,.3-.2.5-.5.5,0,0,0,0,0,0,0,0-4.3.1-6.2.3h-1c-3.1.6-6.3.8-9.4.8ZM374.2,421.4c-1.9,0-3.7.6-3.9,1.2-.3,1.2-1.8,5.3-1.8,5.5,0,.2-.2.3-.3.3-3.1.9-6.6,2.2-7.1,2.8-.4.9-.7,1.9-.7,2.9-.1,1.6.1,2.4.3,2.5.6.4,1.2.7,1.8,1,.7.3,1.3.6,1.9,1.1.4.7.7,1.4,1,2.2,1,2.5,2.6,6.6,4.4,8.2.5.4.8.8,1.1,1.1,1.4,1.5,1.8,1.9,6.9,2,3.5,0,7.1-.1,10.6-.7h1c1.6-.3,4.6-.4,5.8-.5l-.2-21-10.8-.5c-.1,0-.3,0-.4-.2-2.7-3-7.5-7.8-8.8-7.9-.3,0-.6,0-.8,0Z"/>
    <path class="st3" d="M368,428.4c-.3,0-.5-.2-.5-.5,0-.3.2-.5.5-.5l7.3-1.4c.3,0,.5.1.6.4,0,.3-.1.5-.4.6,0,0,0,0,0,0l-7.3,1.4h0Z"/>
    <path class="st5" d="M396.5,452l4.4-.5,1.8-25.8-8.5-.2s-.7,9.6-1.1,16.4c-.4,5.8,1.1,9.3,1.5,10.1h2Z"/>
    <path class="st3" d="M396.5,452.5h-2c-.2,0-.4-.1-.5-.3-.5-.9-1.9-4.5-1.5-10.4.4-6.7,1.1-16.4,1.1-16.4,0-.3.2-.5.5-.5l8.5.2c.1,0,.3,0,.4.2,0,.1.1.2.1.4l-1.8,25.8c0,.2-.2.4-.4.5l-4.4.5h0ZM394.8,451.5h1.7l3.9-.4,1.7-24.9-7.5-.2c-.1,2-.7,10-1.1,15.9-.3,3.3.1,6.5,1.3,9.6Z"/>
    <path class="st9" d="M493.3,452c.7-.3,1.5-.7,2.1-1.1,3.1-2,3.1-9,3.6-20.2s-2.2-43.3-2.2-43.3c0,0,.2-4.5,0-9.6s-10.5-22.6-16.4-27.1c-3.7-2.7-8.3-3.7-12.8-2.9l-14.6,10.5c-1.4,2.5-5.4,5.8-4.9,17.5s4,9.9,4,11.7-.7,24.9-.7,24.9c0,0-1.1,1.6-2,2.9-.6.9-1,1.9-1.3,2.9-4.5,1.2-9.1,2-13.7,2.2-6.5.2-33.4,3.4-33.4,3.4-1.1,4.9-1.6,9.8-1.6,14.8,0,4.6.7,9.1,2.1,13.5h91.8Z"/>
    <path class="st3" d="M493.3,452.5h-91.8c-.2,0-.4-.1-.5-.3-1.4-4.4-2.1-9-2.1-13.6,0-5,.5-10,1.6-14.9,0-.2.2-.4.4-.4.3,0,27-3.1,33.5-3.4,4.5-.3,8.9-1,13.3-2.1.3-1,.8-1.9,1.3-2.8.8-1.1,1.6-2.4,1.9-2.8,0-2,.7-23,.7-24.7s0-.3-.5-.7c-1.1-.8-3.2-2.4-3.5-11-.4-9.9,2.5-14,4.1-16.4.3-.5.6-.9.9-1.3,0,0,0-.1.1-.2l14.6-10.5c0,0,.1,0,.2,0,4.6-.9,9.4.2,13.2,3,5.8,4.5,16.3,21.9,16.6,27.5.2,5.1,0,9.6,0,9.7,0,.3,2.7,32.2,2.2,43.3v2.6c-.5,10-.7,16-3.8,18-.7.5-1.5.8-2.2,1.2,0,0-.1,0-.2,0ZM401.9,451.5h91.3c.7-.3,1.4-.7,2-1.1,2.7-1.7,2.9-7.9,3.3-17.2v-2.6c.5-11.1-2.1-42.9-2.1-43.2,0-.1.2-4.6,0-9.7-.2-4.8-10.2-22.2-16.2-26.8-3.5-2.6-8-3.6-12.3-2.8l-14.4,10.4c-.2.4-.5.8-.9,1.3-1.7,2.5-4.3,6.3-4,15.8.3,8.1,2.1,9.5,3.1,10.2.5.3.9.8.9,1.5,0,1.8-.6,24-.7,24.9,0,0,0,.2,0,.3,0,0-1.1,1.6-2,2.9-.6.9-1,1.8-1.3,2.8,0,.2-.2.3-.4.3-4.5,1.2-9.1,2-13.8,2.3-6,.2-29.9,3-33,3.3-1,4.7-1.5,9.5-1.5,14.3,0,4.4.6,8.8,1.9,13Z"/>
    <path class="st3" d="M489.3,383.8c0,0-.2,0-.3,0-9.3-5.8-15.9-9.3-18.6-9.7-1.7-.3-2.9,0-3.6.6-.5.5-.8,1.3-.7,2,0,.3-.2.5-.4.6s-.5-.2-.6-.4c0-1,.3-2.1,1-2.8,1-.9,2.5-1.2,4.5-.9,3.5.6,12.2,5.7,18.9,9.9.2.1.3.5.1.7,0,.1-.2.2-.4.2h0Z"/>
    <path class="st3" d="M494.4,387c0,0-.2,0-.3,0,0,0-1-.6-2.5-1.6-.2-.2-.3-.5-.1-.7.1-.2.4-.3.7-.1,1.6,1,2.5,1.6,2.5,1.6.2.2.3.5.1.7,0,.1-.3.2-.4.2Z"/>
    <path class="st3" d="M481.3,430.5c-.1,0-.2,0-.3,0l-3.3-2.2c-.2-.2-.3-.5-.1-.7.2-.2.5-.3.7-.1l3.3,2.2c.2.2.3.5.1.7,0,.1-.3.2-.4.2Z"/>
    <path class="st3" d="M475.2,426.4c-.1,0-.2,0-.3,0-6.2-4.2-13.9-9.5-15.4-10.6-1.8-1.3-6.2.5-7.8,1.4-.2.1-.5,0-.7-.2,0,0,0,0,0,0-.1-.2,0-.5.2-.7,0,0,0,0,0,0,.2-.1,6.1-3.3,8.8-1.3,1.5,1.1,9.2,6.4,15.4,10.6.2.1.3.5.1.7,0,0,0,0,0,0,0,.1-.2.2-.4.2Z"/>
    <path class="st3" d="M461.8,423.8c-.2,0-.3,0-.4-.2,0,0-2.5-3.6-10.6-3.4-.3,0-.5-.2-.5-.5h0c0-.3.2-.5.5-.5,0,0,0,0,0,0,8.7-.2,11.3,3.6,11.4,3.8.2.2,0,.5-.1.7,0,0-.2,0-.3,0Z"/>
    <path class="st2" d="M441.8,313.7s-6-5.5-5.9-10c0-2.8.4-5.5,1-8.2,0,0-7.7-2.6-11-5.8s-6.2-6-6.2-6c0,0,3.7,6.6.5,5.1s-7.2-11.1-6.6-13.4,26.7-5.4,37.4-1.9,19.2,9.5,21,15.5,4.2,23.3,3.9,27.9-8.3,13.3-14.1,14.4-17-6.7-16.5-7.5,6.1-1.6,6.3-9-2.3-9.4-4.3-8.6-5.4,7.6-5.4,7.6Z"/>
    <path class="st2" d="M460.5,331.8c-5.8,0-14.5-5.9-15.6-7.5-.2-.2-.3-.6,0-.9.3-.3.7-.6,1.1-.8,1.7-.9,4.9-2.5,5-8,.1-5.9-1.4-7.5-2-8-.4-.3-1-.4-1.5-.1-1.3.6-3.9,4.8-5.2,7.4,0,.1-.2.2-.4.3-.2,0-.3,0-.4-.1-.2-.2-6.1-5.7-6-10.4,0-2.7.4-5.3.9-7.9-1.7-.6-7.8-2.9-10.7-5.7l-4.2-4c.5,1.3.8,2.6.3,3.2-.4.4-1,.4-1.8,0-3.5-1.5-7.6-11.4-6.9-14,.2-.4.5-.7.8-.9,4.4-2.4,27.4-4.6,37.2-1.4,11.1,3.6,19.5,9.9,21.3,15.9s4.3,23.5,3.9,28.1-8.4,13.7-14.5,14.8c-.4,0-.8,0-1.3,0ZM445.8,323.8c1.1,1.5,10.6,7.8,15.8,6.9,5.6-1,13.4-9.5,13.7-13.9s-2.1-21.8-3.9-27.7c-1.7-5.7-9.9-11.7-20.7-15.2-10.6-3.5-35.7-.1-36.8,1.6-.5,2.1,3.4,11.5,6.4,12.8.5.2.6.2.6.2.2-.4-.6-2.6-1.7-4.6-.1-.2,0-.5.1-.6.2-.2.5-.2.6,0,0,0,3,2.9,6.2,6s10.7,5.7,10.8,5.8c.2,0,.4.3.3.6-.6,2.7-.9,5.4-1,8.1,0,3.5,3.9,7.8,5.2,9.2.9-1.8,3.6-6.5,5.4-7.3.8-.4,1.7-.3,2.5.2,1.7,1.1,2.6,4.3,2.5,8.8-.1,6.1-3.8,8-5.6,8.9-.2,0-.4.2-.6.3h0Z"/>
  </g>
  <g id="freepik--character-3--inject-56">
    <path class="st3" d="M614.3,452.2l14.2-66.8c.6-3.1-1.5-6.1-4.6-6.7-.4,0-.7-.1-1.1-.1h-10.6c-2.6,0-4.8,1.7-5.5,4.1l-16.1,69.5h23.7Z"/>
    <path class="st3" d="M614.3,452.7h-23.7c-.3,0-.5-.2-.5-.5,0,0,0,0,0,0l16.1-69.5c.8-2.7,3.2-4.5,6-4.5h10.6c3.5,0,6.3,2.8,6.3,6.2,0,.4,0,.8-.1,1.2l-14.2,66.8c0,.2-.3.4-.5.4ZM591.2,451.7h22.7l14.1-66.4c.5-2.9-1.3-5.6-4.2-6.1-.3,0-.7,0-1,0h-10.6c-2.3,0-4.3,1.6-5,3.8l-16,68.8Z"/>
    <path class="st2" d="M605.8,452.2c0-8.1.2-95.4-1-98.9-1.3-3.7-44.3-25.1-44.3-25.1l-26.7,11.9s-28.5,20.3-28.2,24.3c.2,3.8,5.8,80.3,6.3,87.8h94Z"/>
    <path class="st3" d="M605.8,452.7h-94c-.3,0-.5-.2-.5-.5-.6-8.6-6-84.1-6.3-87.8-.3-4,23.7-21.3,28.5-24.7h0l26.7-11.9c.1,0,.3,0,.4,0,4.4,2.2,43.2,21.6,44.6,25.3,1.2,3.5,1.1,83.1,1.1,99.1,0,.3-.3.5-.5.5ZM512.2,451.7h93.1c0-35.4,0-95.5-1-98.2-.9-2.6-26.7-16.1-43.9-24.7l-26.4,11.7c-10.9,7.8-28.2,21.1-28,23.8.2,3.7,5.5,76.8,6.2,87.4Z"/>
    <path class="st5" d="M512.3,431.6c-.3,0-.5-.2-.5-.4l-6.1-50.4c0-.3.1-.5.4-.6,0,0,0,0,0,0,.3,0,.5.2.6.4,0,0,0,0,0,0l6.2,50.4c0,.3-.2.5-.4.6h0Z"/>
    <path class="st5" d="M531.7,339.1s-3.9,34.1-3.3,46.8c.5,8.3,1.8,16.5,3.9,24.5,0,0,25.4-70.6,26.3-74s1.8-8.2,1.8-8.2l-4.2-4.2-24.4,15.1Z"/>
    <path class="st3" d="M532.3,410.8h0c-.2,0-.4-.2-.5-.4-2.1-8-3.4-16.3-3.9-24.6-.6-12.6,3.3-46.5,3.3-46.9,0-.2.1-.3.2-.4l24.5-15.1c.2-.1.5,0,.6,0l4.2,4.2c.1.1.2.3.1.4,0,0-.9,4.9-1.8,8.2s-25.2,71.1-26.3,74c0,.2-.3.3-.5.3ZM532.2,339.4c-.3,3.1-3.9,34.5-3.3,46.5.4,7.7,1.6,15.3,3.5,22.8,3.7-10.3,24.9-69.4,25.7-72.4.8-2.8,1.5-6.8,1.8-7.9l-3.8-3.8-23.9,14.8Z"/>
    <path class="st3" d="M549.2,361.3c-.1,0-.3,0-.4-.2l-11.9-12.8-5.7,9.1c-.1.2-.5.3-.7.2-.2-.1-.3-.5-.2-.7l6-9.7c0-.1.2-.2.4-.2.2,0,.3,0,.4.2l12.4,13.3c.2.2.2.5,0,.7,0,0-.2.1-.3.1Z"/>
    <path class="st4" d="M533.5,353.3l2.5,12.9-7.5,20.9s1.8,19.5,3.9,23.1l9.1-26.3-2.7-18.4,3.3-12.1-5.1-6-3.4,5.8Z"/>
    <path class="st3" d="M532.3,410.8c-.2,0-.3,0-.4-.2-2.1-3.7-3.9-22.6-4-23.4,0,0,0-.1,0-.2l7.5-20.8-2.4-12.8c0-.1,0-.2,0-.4l3.4-5.8c0-.1.2-.2.4-.2.2,0,.3,0,.4.2l5.1,6c.1.1.1.3.1.5l-3.3,12,2.7,18.3c0,0,0,.2,0,.2l-9.1,26.3c0,.2-.2.3-.4.3h0ZM528.9,387.2c.1,1.5,1.6,16.6,3.3,21.7l8.6-24.9-2.7-18.3c0,0,0-.1,0-.2l3.2-11.8-4.5-5.3-2.9,5,2.5,12.7c0,0,0,.2,0,.3l-7.5,20.8Z"/>
    <path class="st5" d="M530,414.5c-.2,0-.3,0-.4-.2-4.5-7.7-7-21.5-8.4-31.8,0-.3.2-.5.4-.6.3,0,.5.2.6.4,1.1,8.3,3.6,23.5,8.2,31.4.1.2,0,.5-.2.7,0,0-.2,0-.3,0Z"/>
    <path class="st5" d="M521.1,378.1c-.3,0-.5-.2-.5-.4-.3-2.5-.4-4-.4-4,0-.1,0-.2,0-.3l4.2-6.5-4.1-3.1c-.2-.1-.2-.4-.2-.6l6.9-16.4c0-.3.4-.4.6-.3,0,0,0,0,0,0,.3.1.4.4.3.7,0,0,0,0,0,0l-6.7,16,4.2,3.2c.2.2.3.4.1.7l-4.4,6.7c0,.5.2,1.8.4,3.8,0,.3-.2.5-.4.5,0,0,0,0,0,0h0Z"/>
    <path class="st5" d="M536.3,413.2c-.1,0-.2,0-.3,0-.2-.2-.3-.5-.1-.7,1.2-1.6,2.5-3.6,3.9-5.9.1-.2.5-.3.7-.2h0c.2.1.3.4.2.7,0,0,0,0,0,0-1.5,2.3-2.8,4.3-3.9,6-.1.1-.3.2-.4.2Z"/>
    <path class="st5" d="M543,402.7c0,0-.2,0-.3,0-.2-.1-.3-.4-.2-.7,0,0,0,0,0,0,9.1-14.9,19.7-34.9,21.3-38l-6.2-4.2c-.1,0-.2-.2-.2-.4,0-.2,0-.3.2-.4l7.4-5.4-1.3-20.3c0-.3.2-.5.5-.5.3,0,.5.2.5.5l1.3,20.6c0,.2,0,.3-.2.4l-7.1,5.1,6,4.1c.2.1.3.4.2.6-.1.2-11.8,22.3-21.5,38.4,0,.2-.2.3-.4.3Z"/>
    <path class="st5" d="M525.9,446.7c-.2,0-.4-.2-.5-.4-1.2-5.3-1.9-10.7-2.1-16.1,0,0,0,0,0-.1.9-2.8,2.1-5.5,3.7-8,.8-1.4,1.6-2.8,2.2-4.1.1-.3.4-.4.6-.3s.4.4.3.6c0,0,0,0,0,0-.7,1.4-1.5,2.8-2.3,4.2-1.5,2.4-2.7,4.9-3.6,7.6.2,5.3.9,10.6,2.1,15.8,0,.3-.1.5-.4.6h0Z"/>
    <path class="st5" d="M518.1,280.5s-3.9,10-3.9,14.5.9,5.7-.3,7.9-7.5,7.2-6.6,9.4,3.9,3.9,3.9,3.9c0,0,4.5,21.4,6.9,22.6s7-1.2,7-1.2l11.8,10,19.3-23.6-3.3-11.2s1.8-12.1-2.1-20.2-15.4-12.1-19.9-12.1h-12.7Z"/>
    <path class="st3" d="M536.8,348c-.1,0-.2,0-.3-.1l-11.5-9.7c-1.1.5-4.8,2.2-7.1,1.1-2.5-1.2-6.3-18.7-7.2-22.8-.7-.5-3.1-2.1-3.9-4-.7-1.7,1.8-4.4,4.2-6.9.9-.9,1.7-1.9,2.5-2.9.7-1.2.6-2.1.5-3.8-.1-1.3-.2-2.6-.2-3.8,0-4.6,3.8-14.3,4-14.7,0-.2.3-.3.5-.3h12.6c5,0,16.5,4.2,20.4,12.4,3.8,7.9,2.4,19.1,2.2,20.4l3.3,11.1c0,.2,0,.3,0,.5l-19.3,23.5c0,.1-.2.2-.3.2h0ZM525.1,337c.1,0,.2,0,.3.1l11.4,9.6,18.8-23-3.3-10.8c0,0,0-.1,0-.2,0-.1,1.7-12-2.1-19.9-4-8.3-15.5-11.8-19.5-11.8h-12.3c-.7,1.7-3.8,10-3.8,14,0,1.2,0,2.5.2,3.7.2,1.8.3,2.9-.6,4.4-.8,1.1-1.7,2.1-2.6,3.1-1.8,1.9-4.5,4.8-4,5.8.8,1.9,3.7,3.7,3.7,3.7.1,0,.2.2.2.3,1.9,8.8,5.2,21.5,6.7,22.3,1.8.9,5.3-.6,6.5-1.2,0,0,.2-.1.2-.1h0Z"/>
    <path class="st3" d="M515.4,320c-.3,0-.7,0-1,0-.3,0-.5-.3-.4-.6,0-.3.3-.5.6-.4,0,0,4,.5,5.9-2.2.2-.2.5-.3.7-.1,0,0,0,0,0,0,.2.2.3.5.1.7-1.4,1.8-3.6,2.8-5.8,2.7Z"/>
    <path class="st3" d="M520.8,297.3c-.2,0-.3,0-.4-.2-.9-1.6-1.8-2-2.3-2.1-.3,0-.7,0-.9.2-.2.2-.5.1-.7,0-.2-.2-.1-.5,0-.7.5-.4,1.1-.5,1.7-.4,1.1.2,2.1,1.1,3,2.6.1.2,0,.5-.2.7,0,0,0,0,0,0,0,0-.2,0-.3,0Z"/>
    <path class="st3" d="M517.5,301.6c0,1.5-.4,2.7-.9,2.7s-.9-1.2-.9-2.7.4-2.7.9-2.7.9,1.2.9,2.7Z"/>
    <polygon class="st3" points="525.1 337.6 532.9 335.5 533.5 343.9 525.1 337.6"/>
    <path class="st3" d="M533.5,344.4c-.1,0-.2,0-.3-.1l-8.5-6.3c-.2-.1-.2-.3-.2-.5,0-.2.2-.3.4-.4l7.8-2.1c.1,0,.3,0,.4,0,.1,0,.2.2.2.4l.6,8.5c0,.2,0,.4-.3.5,0,0-.2,0-.2,0ZM526.2,337.8l6.8,5.1-.5-6.8-6.3,1.7Z"/>
    <path class="st2" d="M542.6,269.6s-27.8-4.2-26-1.2,3,5.4,3,5.4c0,0-13.9,3.9-8.8,6s14.5,7,14.5,7c0,0-.9,9.1.3,10.3s4.8,5.4,4.8,5.4c0,0-1.5,3,0,3.3s1.5,1.8,3,1.2.3-6.3,5.4-6.6,7.2,5.7,7.2,10.9c-.2,3.3-1.4,6.5-3.6,9,0,0,8.2,5.1,12.7,6.6s6,.3,7.2-1.8,3.3-9,4.2-10.3,9.1-10.6,7-24.5-24.7-24.4-27.7-24.1c-1.7.2-3.1,1.6-3.3,3.3Z"/>
    <path class="st3" d="M558.7,328.2c-1.2,0-2.4-.3-3.6-.7-4.5-1.5-12.5-6.5-12.8-6.7-.1,0-.2-.2-.2-.4,0-.1,0-.3.1-.4,0,0,3.5-3.9,3.5-8.7s-.8-6.9-3-9c-1-1-2.4-1.5-3.7-1.4-3,.2-3.5,2.4-4,4.3-.3,1.1-.5,2-1.2,2.3-.8.4-1.7.2-2.2-.5-.3-.3-.7-.6-1.1-.7-.4,0-.7-.3-.9-.7-.4-.9.1-2.4.4-3-.8-.9-3.6-4.1-4.6-5.2-1.2-1.2-.7-7.8-.5-10.3-1.7-.8-9.6-4.9-14.2-6.8-1-.4-1.5-1-1.4-1.6.1-2.1,6.8-4.4,9.7-5.2-.5-.9-1.4-2.7-2.7-4.9-.2-.3-.2-.7,0-1,1.4-2.1,19.7.4,26,1.4.4-1.8,1.9-3.1,3.7-3.2,3.4-.4,26.2,10.5,28.3,24.6,1.3,8.8-1.2,17.7-6.9,24.6l-.2.3c-.8,1.5-1.5,3.1-2,4.8-.6,1.9-1.4,3.7-2.2,5.4-.9,1.6-2.1,2.7-4.2,2.7ZM543.3,320.2c1.8,1.1,8.3,5,12.1,6.3,4.5,1.5,5.7.2,6.7-1.6.8-1.7,1.5-3.5,2.2-5.3.5-1.7,1.3-3.4,2.1-5l.2-.3c5.6-7.1,7.9-15.4,6.6-23.8-2.1-13.6-24.2-23.8-27.2-23.8h0c-1.5.2-2.7,1.4-2.9,2.9,0,.1,0,.3-.2.3-.1,0-.2.1-.4.1-11.6-1.8-24.1-2.9-25.4-1.9,1.8,3,3,5.4,3,5.4,0,.1,0,.3,0,.4,0,.1-.2.2-.3.3-4.5,1.3-9.5,3.3-9.5,4.4,0,.2.3.4.8.6,5.1,2.1,14.4,6.9,14.5,7,.2,0,.3.3.3.5-.4,4.2-.5,9.2.2,9.9,1.2,1.2,4.7,5.3,4.9,5.5.1.2.2.4,0,.5-.4.7-.6,1.6-.6,2.5,0,0,.1.1.2.1.6.1,1.2.5,1.6.9.4.4.6.5,1.1.3.3-.1.5-.9.7-1.6.5-1.9,1.2-4.8,4.9-5,1.7-.1,3.3.5,4.5,1.6,2.4,2.3,3.3,6.5,3.3,9.7-.1,3.2-1.3,6.4-3.4,8.9Z"/>
    <path class="st3" d="M445.3,452.5h6.8v-.4h59.7l-5.8-83.6-14.3,54.9-6.6-1-3.4,3.4-37.8,6.1s2.1,15.8,1.9,17.4-.5,3.2-.5,3.2Z"/>
    <path class="st2" d="M452.1,453h-6.8c-.3,0-.5-.2-.5-.5,0,0,0,0,0,0l.5-3.2c.2-1.1-1-10.9-1.9-17.3,0-.3.2-.5.4-.6l37.6-6,3.3-3.3c.1-.1.3-.2.4-.1l6.1,1,14.1-54.5c0-.2.3-.4.5-.4.2,0,.4.2.5.5l5.8,83.6c0,.1,0,.3-.1.4,0,.1-.2.2-.4.2h-59.2c0,.2-.3.4-.5.4ZM445.9,452h5.7c0-.2.3-.4.5-.4h59.2l-5.5-80-13.5,51.9c0,.2-.3.4-.6.4l-6.3-1-3.2,3.2c0,0-.2.1-.3.1l-37.3,6c.4,3,2,15.6,1.8,17.1l-.4,2.6Z"/>
    <path class="st5" d="M443.9,431.9l-6.1-1.1s-19.3-4-22.2-2.1-2.1,19-1.6,20.9.8,1.3,4.8,2.4,26.4.5,26.4.5c0,0,2.6-6.9-1.3-20.6Z"/>
    <path class="st3" d="M433.6,453.2c-6.1,0-12.8-.1-14.8-.7-1-.3-1.8-.4-2.3-.6-1.8-.4-2.3-.5-2.8-2.2-.5-1.9-1.5-19.3,1.8-21.4,3-1.9,20.6,1.6,22.5,2l6.1,1.1c.2,0,.3.2.4.4,4,13.7,1.4,20.6,1.3,20.9,0,.2-.3.3-.5.3-.5,0-5.9.2-11.7.2ZM418.8,428.8c-1,0-1.9,0-2.8.4-2.6,1.6-1.9,18.4-1.4,20.3q.3,1.1,2,1.5c.6.1,1.4.3,2.4.6,3.6,1,23,.6,25.9.5.4-1.5,1.9-8.1-1.3-19.7l-5.8-1c-5.9-1.2-14.4-2.6-19-2.6Z"/>
    <path class="st5" d="M416.2,431.4s5.8,7.9,5.5,11.9-1.6,1.3-3.2.5-9.2-7.7-10.6-10,3.7-6.6,3.7-6.6c.9-.5,1.9-.6,2.9-.3,1.6.5,10.8,4.2,10.8,4.2"/>
    <path class="st3" d="M421,445.9c-.6-.1-1.1-.4-1.5-.9-.3-.3-.7-.6-1.1-.8-1.6-.8-9.4-7.7-10.8-10.2s3.3-6.8,3.8-7.2c1-.6,2.3-.7,3.4-.4,1.6.5,10.5,4.1,10.9,4.2.3.1.4.4.3.7s-.4.4-.7.3c0,0-9.2-3.7-10.8-4.2-.8-.3-1.7-.2-2.5.2-1.2,1-4.4,4.3-3.5,5.9,1.3,2.3,8.9,9.1,10.4,9.8.5.3.9.6,1.3.9.3.2.5.5.9.6.2-.5.3-1.1.3-1.7.2-3.7-5.4-11.5-5.4-11.5-.2-.2-.2-.5,0-.7.2-.2.5-.2.7,0,0,0,0,0,0,0,.2.3,5.9,8.1,5.6,12.2-.1,1.5-.4,2.3-.9,2.5-.1,0-.2,0-.4,0Z"/>
    <path class="st5" d="M419.6,406.8l1.7,40.3,2.4,4.3,1-4.1-2.2-40.6c0-.8-.7-1.4-1.5-1.3,0,0,0,0,0,0h0c-.7,0-1.3.7-1.3,1.5Z"/>
    <path class="st3" d="M423.7,451.9c-.2,0-.3,0-.4-.2l-2.4-4.3c0,0,0-.1,0-.2l-1.7-40.3c0-1,.7-1.9,1.7-2,.5,0,1,0,1.5.4.4.3.7.8.7,1.4l2.2,40.6s0,0,0,.1l-1,4.1c0,.2-.2.4-.4.4h0ZM421.8,447l1.7,3,.7-2.8-2.2-40.5c0-.2-.1-.5-.3-.6-.2-.2-.4-.2-.7-.2-.5,0-.8.5-.8,1h0l1.7,40.2Z"/>
    <path class="st5" d="M440.8,434.6s-11.1-8.2-12.9-8.2-4.2,5.5-4.2,5.5c0,0-4.2,10.6-1.9,11.4s5.5-4.8,5.5-4.8c0,0,2.6,6.9,8.5,7.1"/>
    <path class="st3" d="M435.8,446.2h0c-4.8-.2-7.5-4.6-8.5-6.6-1,1.6-3.5,4.9-5.6,4.2-.4-.1-.7-.4-.8-.8-1.1-2.4,2-10.4,2.4-11.2s2.6-5.9,4.7-5.9,11.4,6.9,13.2,8.3c.2.2.3.5.1.7s-.5.3-.7.1c0,0,0,0,0,0-5.3-3.9-11.5-8.1-12.6-8.1s-2.8,3.1-3.8,5.2c-1.3,3.2-3.1,8.9-2.4,10.4,0,.2.2.2.2.2,1.4.5,3.8-2.5,5-4.5.1-.2.4-.3.7-.2,0,0,.2.1.2.3,0,0,2.6,6.6,8,6.8.3,0,.5.2.5.5s-.2.5-.5.5h0Z"/>
    <path class="st3" d="M427.3,439c0,0-.1,0-.2,0-.2-.1-.3-.4-.2-.7,0,0,0,0,0,0l2.6-5.5c.1-.2.4-.3.7-.2.2.1.3.4.2.6l-2.6,5.5c0,.2-.3.2-.4.2Z"/>
    <path class="st5" d="M408,433.8s-5.3,5.8-4.1,7.8,12,7.2,14.3,6.7,2-3.1,2-3.1l-12.2-11.4Z"/>
    <path class="st3" d="M417.9,448.8c-3.3,0-13.3-5.1-14.4-7-1.3-2.2,3.2-7.3,4.2-8.3,0,0,.2-.2.3-.2.1,0,.3,0,.4.1l12.2,11.4c0,0,.1.2.2.3.3,1.7-.7,3.3-2.4,3.7-.1,0-.3,0-.4,0ZM408.1,434.5c-2,2.3-4.3,5.7-3.7,6.8,1.1,1.9,11.8,6.9,13.8,6.5,1.1-.3,1.7-1.3,1.6-2.4l-11.7-10.9Z"/>
    <path class="st5" d="M405.1,442.7s3.1,7.1,4.6,7.9,7.2,2.2,9.2,1.4.5-3.9.5-3.9c-1.3,0-2.6-.4-3.8-.8l-10.5-4.6Z"/>
    <path class="st3" d="M417.2,452.7c-2.7,0-5.3-.7-7.7-1.7-1.5-.9-4.3-6.9-4.8-8.1,0-.2,0-.4.1-.5.1-.1.4-.2.5-.1,0,0,9,4,10.5,4.6,1.2.4,2.4.7,3.6.8.2,0,.3.1.4.3.5,1.1.7,2.3.4,3.4-.2.5-.6,1-1.2,1.1-.6.2-1.2.3-1.9.3ZM406.1,443.7c1.2,2.6,3,6,3.9,6.5,1.5.8,7,2.1,8.8,1.4.3,0,.5-.3.6-.6.2-.8,0-1.6-.2-2.4-1.2-.1-2.5-.4-3.6-.8l-9.3-4.1Z"/>
    <path class="st5" d="M419.9,451.1s4.6-2,4.4-.2c0,.9-.7,1.8-1.6,1.8l-6.7-.3s2.6.3,3.9-1.3Z"/>
    <path class="st3" d="M422.7,453.2l-6.2-.3h-.6c-.3,0-.5-.3-.4-.5,0-.3.2-.5.5-.5,0,0,0,0,0,0h.5c1.1,0,2.2-.4,3-1.2,0,0,.1-.1.2-.1.8-.4,3.6-1.5,4.7-.7.3.2.5.6.4,1,0,1.2-.9,2.2-2.1,2.3ZM419.5,452.1h3.1c.1.1,1,0,1.1-1.2h0c-.4-.4-2.2,0-3.6.6-.2.2-.4.4-.7.6Z"/>
    <path class="st5" d="M467.4,452.2c3.7-.3,7.5-.3,11.2,0h10.4c2.5-.5,4.9-1.1,7.3-1.9-.5-4-1-8.1-1.5-12.1-5.3.8-10.5,2.1-15.6,4-2.9,1.1-5.7,2.5-8.4,4.2-.9.6-9,3.7-11,5.8h7.5Z"/>
    <path class="st3" d="M478.7,452.7c-3.7-.3-7.5-.3-11.2,0h-7.5c-.2,0-.4-.1-.5-.3,0-.2,0-.4,0-.5,1.5-1.7,6.4-3.8,9.2-5.1.9-.4,1.6-.7,1.8-.8,2.7-1.7,5.5-3.1,8.4-4.2,5.1-1.9,10.3-3.2,15.7-4,.1,0,.3,0,.4.1.1,0,.2.2.2.3l1.5,12.1c0,.2-.1.5-.4.5-2.4.8-4.8,1.4-7.3,1.9h-10.5ZM472.4,451.4c2.2,0,4.5.1,6.3.2h10.4c2.3-.5,4.5-1.1,6.7-1.8l-1.4-11.2c-5.1.8-10.1,2.1-15,3.9-2.9,1.1-5.6,2.5-8.3,4.1-.2.1-.8.4-2,.9-2.7,1.1-5.4,2.5-7.9,4h6.1c1.7-.2,3.4-.2,5.1-.2Z"/>
    <path class="st2" d="M606.2,452.2c1.7-2.2,2.9-4.7,3.7-7.3.6-3.5.8-7.1.8-10.7,0-1,1.8-66.3.3-74.1s-10.9-9.4-10.9-9.4l-4.9,1.3s-7.3,10.7-10.7,21.1-5.2,51.8-5.2,51.8c0,0-7,.8-7,1.6v3.6l-77.2,8.1,1.2,14h110Z"/>
    <path class="st2" d="M606.2,452.7h-110c-.3,0-.5-.2-.5-.5l-1.2-14c0-.3.2-.5.5-.5l76.8-8v-3.2c0-.4,0-1.2,7-2,.2-4.6,2-41.6,5.2-51.5,3.4-10.4,10.7-21.1,10.7-21.2,0,0,.2-.2.3-.2l4.9-1.3c0,0,.1,0,.2,0,0,0,9.7,1.7,11.3,9.8.9,4.6.9,29.4-.2,71.8,0,1.5,0,2.3,0,2.4,0,3.6-.2,7.2-.8,10.7-.8,2.7-2,5.2-3.7,7.5,0,.1-.2.2-.4.2ZM496.6,451.7h109.3c1.5-2.1,2.7-4.4,3.4-6.9.6-3.5.8-7,.8-10.6,0-.1,0-1,0-2.4,1.3-53.5.8-68.4.2-71.6-1.4-6.9-9.4-8.8-10.4-8.9l-4.7,1.2c-.9,1.3-7.4,11.2-10.5,20.8-3.3,10.2-5.2,51.2-5.2,51.6,0,.2-.2.4-.5.5-2.2.2-4.4.6-6.6,1.2v3.5c0,.3-.2.5-.5.5l-76.8,8,1.2,13.1Z"/>
    <path class="st5" d="M501,437.5c-.3,0-.5-.2-.5-.5s.2-.5.5-.5l5-.5c.3,0,.5.2.5.5,0,.3-.2.5-.5.5l-5.1.5h0Z"/>
    <path class="st5" d="M510.6,436.6c-.3,0-.5-.2-.5-.5,0-.3.2-.5.4-.5l61.1-6v-3.2c0-.2.2-.4.4-.5l6.7-1.5c.3-3.7,3.1-35,4.2-43.6.7-5.1,2-10.1,3.7-14.9,0-.3.4-.4.6-.3s.4.4.3.6c-1.7,4.8-2.9,9.7-3.6,14.8-1.1,9.1-4.2,43.6-4.2,44,0,.2-.2.4-.4.4l-6.6,1.5v3.2c0,.3-.2.5-.5.5l-61.5,6h0Z"/>
    <path class="st5" d="M587.8,364.3c0,0-.1,0-.2,0-.3,0-.4-.4-.3-.6,0,0,0,0,0,0,.6-1.8,1.1-2.8,1.1-2.8,0-.3.4-.4.6-.3.3,0,.4.4.3.6,0,0,0,0,0,0,0,0-.4,1.1-1.1,2.8,0,.2-.3.3-.5.3Z"/>
  </g>
  <g id="freepik--character-4--inject-56">
    <path class="st5" d="M591,452.7h96.7c5.3-12.4,8.8-25.5,10.3-38.9,2.2-21.5-2.2-39.9-7.4-50.7s-9.8-14.1-11-14.1-35.2,14.4-35.2,14.4c0,0-7.4,7.6-11.5,14.6-2.4,4.1-4.4,8.6-5.7,13.1,0,0-4.3,0-5.7,2.4-1.1,2-2,4-2.6,6.2-.5,1.4-12.2,13.4-18.2,18.4s-13.9,13.9-16,20.1,2.9,11.7,3.8,12.7c.8.7,1.7,1.3,2.6,1.8Z"/>
    <path class="st3" d="M687.7,453.2h-96.7c0,0-.2,0-.3,0-1-.5-1.9-1.2-2.7-1.9-.6-.6-6.2-6.5-3.9-13.2,2.1-6.2,9.9-15.1,16.2-20.3s17.6-17,18-18.2v-.4c.8-2.1,1.6-4,2.7-5.9,1.3-2.2,4.7-2.6,5.8-2.6,1.4-4.5,3.3-8.8,5.7-12.9,4-6.9,11.5-14.6,11.5-14.7,0,0,.1,0,.2-.1,8-3.4,34.2-14.4,35.3-14.4s6.1,3.5,11.5,14.4c2.5,5,10.2,23.5,7.5,51-1.5,13.5-5,26.6-10.3,39,0,.2-.2.3-.4.3ZM591.2,452.2h96.2c5.2-12.3,8.6-25.2,10.1-38.5,2.7-27.2-5-45.5-7.4-50.4-5.1-10.4-9.6-13.8-10.6-13.8-1.2.2-21.5,8.6-34.9,14.3-.8.8-7.6,8-11.3,14.4-2.4,4.1-4.3,8.5-5.7,13,0,.2-.3.4-.5.4,0,0-4,0-5.3,2.1-1,1.8-1.8,3.7-2.4,5.7v.4c-.7,1.7-13,14-18.5,18.6-6.2,5.2-13.8,13.9-15.9,19.9s3.1,11.6,3.7,12.2c.7.6,1.5,1.2,2.4,1.7h0Z"/>
    <path class="st3" d="M621.1,447.1c-.3,0-.5-.2-.5-.5,0-.1,0-.2.1-.3l.5-.6c6.3-7.4,12.7-15,19.5-22.2,3.7-3.9,8.2-6.9,12.6-9.8,2.6-1.8,5.4-3.6,7.8-5.5,3.8-3,8.5-6.8,10.1-11.5,0-.3.4-.4.6-.3.3,0,.4.4.3.6-1.6,5-6.5,8.9-10.4,12-2.5,2-5.3,3.8-7.9,5.6-4.3,2.9-8.8,5.9-12.4,9.6-6.8,7.1-13.2,14.7-19.5,22.1l-.5.6c0,.1-.2.2-.4.2Z"/>
    <path class="st3" d="M665.8,417.9c-.2,0-.3,0-.4-.2-.2-.2-.1-.5.1-.7,0,0,0,0,0,0,1-.7,2-1.5,3-2.4.2-.2.5-.2.7,0,.2.2.2.5,0,.7h0c-1,.9-2,1.7-3.1,2.4,0,0-.2,0-.2,0Z"/>
    <path class="st3" d="M638.7,428.4c-.3,0-.5-.2-.5-.5,0-.3.2-.5.5-.5.1,0,13.2-2.4,23.8-8.5.2-.1.5,0,.7.2s0,.5-.2.7c-10.7,6.2-24,8.6-24.1,8.6h0Z"/>
    <path class="st3" d="M658.8,389.4c-.2,0-.4-.1-.5-.3-.1-.2,0-.5.2-.7,0,0,0,0,0,0,1.3-.6,2.7-1.3,4-2.1.3-.1.5,0,.7.2,0,.2,0,.5-.2.6-1.3.8-2.7,1.5-4,2.1,0,0-.2,0-.3,0Z"/>
    <path class="st3" d="M635.6,394.4c-2.8,0-5.5-.2-8.2-.6-.3,0-.4-.3-.4-.6,0-.3.3-.5.6-.4,0,0,0,0,0,0,9.2,1.4,18.7.4,27.5-2.8.2-.1.5,0,.7.2s0,.5-.2.7c0,0,0,0-.1,0-6.3,2.3-13,3.5-19.8,3.4Z"/>
    <path class="st5" d="M631,304.5s-.2,11.2-1.9,14.4.5,10,4.1,15.5,5,7.4,7.7,7.4c2.4-.2,4.8-.6,7.2-1.2,0,0,1.9,7.9,1.9,9.8v3.6s21-6.9,23.2-8.9c1.2-1,2.2-2.1,3.1-3.4l.7-5.7s-8.6-1-13.4-5.7-20.3-26.5-20.3-26.5c0,0-2.9-6.7-7.9-5.7s-4.3,6.5-4.3,6.5Z"/>
    <path class="st3" d="M649.9,354.5c-.1,0-.2,0-.3,0-.1,0-.2-.2-.2-.4v-3.6c0-1.6-1.4-7.4-1.8-9.2-2.2.6-4.5,1-6.8,1.1-3,0-4.5-2.2-8.1-7.6-3.4-5.2-6-12.6-4.1-16,1.5-2.9,1.8-13.4,1.8-14.1s-.5-6,4.7-7,8.1,5.3,8.4,6c.8,1.1,15.6,21.8,20.2,26.4s13,5.6,13.1,5.6c.1,0,.3,0,.3.2,0,.1.1.2.1.4l-.7,5.7c0,0,0,.1,0,.2-.9,1.3-2,2.4-3.2,3.5-2.2,2-22.5,8.7-23.4,9h-.1ZM648,340.1c0,0,.2,0,.3,0,.1,0,.2.2.2.3,0,.3,1.9,8,1.9,9.9v2.9c6.2-2.1,20.7-7.1,22.4-8.5,1.1-.9,2.1-2,3-3.2l.6-5.1c-1.9-.3-9-1.6-13.2-5.8-4.8-4.8-19.7-25.7-20.4-26.6,0,0,0,0,0-.1,0,0-2.8-6.3-7.3-5.4s-3.9,5.7-3.9,5.9h0c0,.5-.3,11.5-2,14.6-1.5,2.7.3,9.3,4,15,3.5,5.4,4.9,7.2,7.2,7.2,2.4-.2,4.7-.6,7-1.2,0,0,.1,0,.2,0Z"/>
    <path class="st2" d="M677.9,279.6s-23.9-12.4-32.5-10.8-21.8,9.1-20.1,14.8c1,3.3,3.9,5.7,7.4,6,0,0-6.9,7.9-4.1,15.3s12,13.2,12.4,13.9c1.7,1.9,3.5,3.6,5.5,5.3.7.5,7.4,13.4,16.3,16.5s12,1.7,14.1-1.4,8.1-11.2,8.1-11.2c0,0,8.6-3.6,6.9-13.4s-2.6-14.6-6-22c-2.1-4.7-4.9-9-8.1-13Z"/>
    <path class="st3" d="M670.8,342.9c-2.8-.1-5.6-.7-8.2-1.8-7.3-2.6-13-11.4-15.4-15.1-.3-.5-.6-1-1-1.4-2-1.7-3.9-3.5-5.6-5.4,0-.1-.6-.5-1.1-.9-2.7-2.1-9-7-11.3-13-2.5-6.4,2-13,3.6-15.1-3.3-.5-6.1-3-7-6.2-.4-1.4,0-3,.8-4.2,3-5,12.8-9.9,19.7-11.3,8.7-1.7,31.9,10.3,32.8,10.8h.1c3.3,4.1,6,8.4,8.2,13.1,3.4,7.6,4.4,12.6,6,22.1,1.6,9.4-6,13.4-7.1,13.9-.7,1-6.1,8.2-8,11.1-1.4,2.2-3.9,3.5-6.5,3.4ZM647.2,269.2c-.6,0-1.2,0-1.7.1-6.7,1.3-16.1,6-19,10.8-.7,1-1,2.2-.7,3.4.9,3.2,3.7,5.4,7,5.6.2,0,.4.1.4.3,0,.2,0,.4,0,.5,0,0-6.7,7.8-4,14.8,2.2,5.8,8.4,10.6,11,12.6.5.3,1,.7,1.4,1.2,1.7,1.8,3.5,3.5,5.4,5.1.5.5.9,1.1,1.2,1.7,2.4,3.7,8,12.3,14.9,14.8,8.5,3,11.5,1.7,13.5-1.2s8.1-11.2,8.1-11.2c0,0,.1-.1.2-.2,4.9-2.2,7.7-7.5,6.6-12.9-1.6-9.5-2.5-14.4-6-21.9-2.1-4.6-4.8-8.8-8-12.7-1.5-.8-21.2-10.8-30.4-10.8Z"/>
    <path class="st3" d="M679.3,291.9c-.2,0-.4-.1-.5-.3-3-8.1-11.6-11.9-11.7-11.9-.3-.1-.4-.4-.3-.7.1-.3.4-.4.7-.3.4.2,9,4,12.2,12.5.1.3,0,.5-.3.6,0,0,0,0,0,0,0,0-.1,0-.2,0Z"/>
    <path class="st3" d="M675.5,285.6c-.3,0-.5-.2-.5-.5,0-.3.2-.5.5-.5,0,0,0,0,0,0,0,0,4.1-.3,5.8-3.3.1-.2.4-.3.7-.2.2.1.3.4.2.7-2,3.5-6.4,3.8-6.6,3.8h0Z"/>
    <path class="st3" d="M672.2,283.5h0c-1.4-.2-2.8-.3-4.2-.2-.3,0-.5-.2-.5-.5,0-.3.2-.5.4-.5,0,0,0,0,0,0,1.5-.1,3,0,4.5.2.3,0,.5.3.4.6,0,.2-.2.4-.5.4Z"/>
    <path class="st3" d="M653.5,290.7c-.1,0-.2,0-.3-.1-.2-.2-.3-.5,0-.7,2.8-3.3,6.6-5.7,10.8-6.9.3,0,.5,0,.6.4,0,.3,0,.5-.4.6,0,0,0,0,0,0-4,1.1-7.6,3.4-10.2,6.5-.1.1-.2.2-.4.2Z"/>
    <path class="st3" d="M651.8,278.2c-.3,0-.5-.1-.6-.4,0-.3.1-.5.4-.6,4-1.4,8.3-1.5,12.3-.3.3,0,.4.3.3.6,0,.3-.3.4-.6.4,0,0,0,0,0,0-3.8-1.1-7.9-1.1-11.6.2,0,0-.1,0-.2,0Z"/>
    <path class="st3" d="M671,302.4c-.3,0-.5-.2-.5-.5,0-.1,0-.3.1-.4,0,0,4.2-4.5,4.9-12.9,0-.3.3-.5.5-.5.3,0,.5.3.5.5h0c-.7,8.7-5,13.3-5.2,13.5-.1,0-.2.2-.4.2Z"/>
    <path class="st3" d="M675,281.6c0,0-.2,0-.2,0-.2-.1-.4-.4-.2-.7,0,0,0,0,0,0,1.5-3.1,1.5-6.7,0-9.8-.1-.2,0-.5.2-.7.2-.1.5,0,.7.2,1.6,3.4,1.6,7.3,0,10.7,0,.2-.2.3-.4.3Z"/>
    <path class="st3" d="M625.3,284.2c-.3,0-.5-.2-.5-.5s0-.3.2-.4c5-3.6,10.7-5.9,16.7-6.8.3,0,.5.2.6.4,0,0,0,0,0,0,0,.3-.2.5-.4.6-5.9.9-11.4,3.2-16.3,6.6,0,0-.2.1-.3.1Z"/>
    <path class="st3" d="M648.8,294.5c-.2,0-.4-.1-.5-.4,0-.3,0-.5.3-.6,1.3-.4,2.7-.7,4.1-1,.3,0,.5.1.6.4,0,.3-.1.5-.4.6-1.3.3-2.7.6-4,1h-.1Z"/>
    <path class="st3" d="M632.2,311c-.2,0-.4-.1-.4-.3-.1-.3-1.2-2.9,3.6-9.4,1.8-2.5,5-4.6,9.2-6.4.3-.1.5,0,.7.3.1.3,0,.5-.3.6,0,0,0,0,0,0-4.1,1.7-7,3.7-8.8,6.1-4.5,6-3.5,8.3-3.5,8.3.1.3,0,.5-.2.7,0,0-.1,0-.2,0Z"/>
    <path class="st3" d="M656.9,325.1c-.3,0-.5-.2-.5-.5,0-.1,0-.3.2-.4,1.1-.9,2.2-2,3.5-3.3,8.4-8.6,9.7-15.5,9.7-15.5,0-.3.3-.4.6-.4.3,0,.5.3.4.6,0,.3-1.3,7.2-9.9,16-1.2,1.3-2.4,2.4-3.5,3.4,0,0-.2.1-.3.2Z"/>
    <path class="st3" d="M650,328.9c-.4,0-.8,0-1.1-.3-.2-.2-.3-.5-.1-.7.2-.2.5-.3.7-.1,0,0,1,.5,3.5-1,.2-.1.5,0,.7.2.1.2,0,.5-.2.7,0,0,0,0,0,0-1,.7-2.3,1.1-3.5,1.2Z"/>
    <path class="st3" d="M678,313.7h0c-.3,0-.5-.3-.5-.5,0,0,0,0,0,0,.4-4,.4-6.9.4-6.9,0-.3.2-.5.5-.5s.5.2.5.5c0,0,0,3-.4,7,0,.3-.2.5-.5.5Z"/>
    <path class="st3" d="M665.2,340.4c-.3,0-.5-.2-.5-.5,0-.2.1-.3.3-.4,0,0,6.8-3.6,9.8-12.9.9-3,1.7-6.1,2.1-9.2,0-.3.3-.5.6-.4.3,0,.5.3.4.6-.5,3.2-1.2,6.3-2.2,9.3-3.1,9.6-10,13.3-10.3,13.5,0,0-.2,0-.2,0Z"/>
    <path class="st3" d="M688.9,324.6c0,0-.1,0-.2,0-.3,0-.4-.4-.3-.6,0,0,0,0,0,0,3.2-9.5-5.1-21.7-5.2-21.8-.2-.2-.1-.5,0-.7.2-.2.5-.1.7,0,0,0,0,0,0,0,.4.5,8.7,12.8,5.3,22.7,0,.2-.3.3-.5.3Z"/>
    <path class="st3" d="M646.8,310.3c0,0-.2,0-.3,0-.2-.1-.3-.4-.2-.7,3.4-5.8,11.8-10.5,12.2-10.7.2-.1.5,0,.7.2.1.2,0,.5-.2.7,0,0,0,0,0,0,0,0-8.5,4.8-11.8,10.3,0,.2-.3.2-.4.3Z"/>
    <path class="st5" d="M642.5,316.5c-.2,3.3-.9,6.5-1.9,9.6-1.7,4.5,3.6,6.2,4.8,2.1s2.2-7.4,1.7-10.3-3.1-3.8-4.5-1.4Z"/>
    <path class="st3" d="M642.8,331c-.8,0-1.6-.4-2.2-1-.9-1.2-1.1-2.8-.4-4.1,1-3,1.7-6.2,1.9-9.4,0,0,0-.2,0-.2.5-1.1,1.7-1.7,2.9-1.6,1.4.4,2.5,1.7,2.6,3.2.5,3-.5,6.5-1.7,10.5-.3,1.3-1.2,2.3-2.5,2.6-.2,0-.4,0-.6,0ZM643,316.6c-.2,3.3-.9,6.5-1.9,9.6-.5,1-.4,2.2.2,3.1.5.5,1.2.8,1.8.6.9-.3,1.6-1,1.8-1.9,1.1-3.9,2.1-7.2,1.7-10.1,0-1.1-.8-2-1.8-2.4-.7,0-1.4.3-1.8,1h0Z"/>
    <path class="st5" d="M680,338.7c-5.5,1.7-10.9,3.9-16,6.5-7.9,4.1-22.7,9.1-22.7,9.1l-4.6,11.7c7.4-1.1,14.8-2.6,22-4.5,12.4-3.4,25.6-11.5,25.6-11.5l-4.3-11.3Z"/>
    <path class="st3" d="M636.8,366.5c-.2,0-.3,0-.4-.2-.1-.1-.1-.3,0-.5l4.5-11.7c0-.1.2-.2.3-.3.2,0,14.9-5.1,22.7-9.1,5.2-2.6,10.6-4.8,16.1-6.5.3,0,.5,0,.6.3l4.3,11.2c0,.2,0,.5-.2.6-.1,0-13.4,8.2-25.7,11.5-7.3,2-14.6,3.5-22.1,4.6h0ZM641.7,354.7l-4.2,10.7c7.1-1.1,14.2-2.5,21.1-4.4,11.1-3,22.9-9.9,25.1-11.2l-4-10.4c-5.3,1.7-10.5,3.8-15.5,6.3-7.2,3.8-20.7,8.4-22.5,9Z"/>
    <path class="st3" d="M596.3,422.7h-.1c-.2,0-.3-.2-.3-.4,0-.2-1.7-6.2-.2-9,.3-.5.8-.9,1.4-1,2.3-.4,6,3.1,6.4,3.5.1,0,.2.2.2.4,0,.1,0,.3-.2.4l-6.7,6c0,0-.2.1-.3.1ZM597.3,413.3h-.2c-.3,0-.5.2-.6.5-1,1.9-.3,5.8,0,7.4l5.7-5.1c-1.1-1-3.5-2.9-4.9-2.9h0Z"/>
    <path class="st5" d="M595.6,416s-4.5,2.4-4.8,4.1,1.7,5.5,1.7,5.5l3.8-3.3-.7-6.2Z"/>
    <path class="st3" d="M592.5,426h0c-.2,0-.3-.1-.3-.3-.2-.4-2-4-1.7-5.8s4.2-4,5-4.4c.1,0,.3,0,.5,0,.1,0,.2.2.3.4l.7,6.2c0,.2,0,.3-.2.4l-3.8,3.4c0,0-.2.1-.3.1ZM595.2,416.7c-1.7,1-3.8,2.5-3.9,3.3-.2,1.1.8,3.3,1.3,4.6l3.1-2.7-.6-5.2Z"/>
    <path class="st5" d="M590.8,420s-2.3.5-2.7,1.8,1.4,7.9,1.4,7.9l3-4.2c-.9-1.7-1.5-3.6-1.7-5.5Z"/>
    <path class="st3" d="M589.5,430.3h0c-.2,0-.3-.2-.4-.4-.3-1.1-1.8-6.8-1.4-8.2.4-1.5,2.8-2.1,3-2.2.1,0,.3,0,.4,0,.1,0,.2.2.2.4.2,1.8.8,3.6,1.6,5.3,0,.2,0,.4,0,.5l-3,4.2c0,.1-.2.2-.4.2ZM590.4,420.7c-.7.2-1.6.7-1.7,1.3s.5,4.1,1.1,6.6l2.2-3.1c-.7-1.5-1.3-3.1-1.5-4.8Z"/>
    <path class="st5" d="M588,423c-1.2,1.5-1.9,3.2-2.3,5-.5,3,3.2-.4,3.2-.4l-1-4.7Z"/>
    <path class="st3" d="M586.2,429.8c-.2,0-.3,0-.5-.1-.5-.3-.6-.8-.5-1.7.3-1.9,1.2-3.7,2.4-5.3.1-.1.3-.2.5-.2.2,0,.3.2.4.4l1,4.7c0,.2,0,.4-.2.5-.7.6-2.1,1.7-3.1,1.7ZM587.7,424.2c-.7,1.2-1.3,2.5-1.5,3.9,0,.6,0,.7,0,.7.8-.2,1.6-.7,2.2-1.3l-.7-3.3Z"/>
    <path class="st3" d="M600.1,418.5c-.2,0-.4-.2-.5-.4l-.6-2.4c0-.3,0-.5.4-.6.3,0,.5,0,.6.4,0,0,0,0,0,0l.6,2.3c0,.3,0,.5-.4.6,0,0,0,0,0,0h-.1Z"/>
    <path class="st2" d="M711.3,452.7l14.2-67.3c.6-3.1-1.5-6.2-4.6-6.7-.4,0-.7-.1-1.1-.1h-10.6c-2.6,0-4.8,1.7-5.5,4.1l-16.1,70h23.7Z"/>
    <path class="st3" d="M711.3,453.2h-23.7c-.2,0-.3,0-.4-.2,0-.1-.1-.3,0-.4l16.1-70c.8-2.7,3.2-4.5,6-4.5h10.6c3.5,0,6.3,2.8,6.3,6.3,0,.4,0,.8-.1,1.1l-14.2,67.3c0,.2-.2.4-.5.4ZM688.2,452.2h22.7l14.1-66.9c.3-1.5-.1-3.1-1.1-4.3-1-1.2-2.5-1.9-4-1.9h-10.6c-2.3,0-4.4,1.5-5,3.8l-16,69.4Z"/>
  </g>
  <g id="freepik--character-1--inject-56">
    <path class="st2" d="M64.4,342s-20.3,31.7-20.3,45.2,5.8,29.1,5.8,29.1l-1.6,36.2h76.6s-8.5-40.4-10.3-53.6-4.2-25.8-4.2-25.8l.8-26.5-46.8-4.5Z"/>
    <path class="st3" d="M124.9,453H48.3c-.1,0-.3,0-.4-.2,0,0-.1-.2-.1-.4l1.6-36.1c-.5-1.3-5.8-16.3-5.8-29.1s19.6-44.2,20.4-45.5c.1-.2.3-.2.5-.2l46.8,4.4c.3,0,.5.2.4.5l-.8,26.5c.2.9,2.4,13.2,4.2,25.9,1.8,13,10.2,53.2,10.3,53.6,0,.3-.1.5-.4.6,0,0,0,0-.1,0h0ZM48.8,452h75.5c-1.1-5.1-8.5-40.9-10.2-53.1-1.8-13-4.2-25.7-4.2-25.9,0,0,0,0,0-.1l.8-26-46-4.3c-1.9,3-20.1,32.1-20.1,44.7s5.7,28.7,5.8,28.9c0,0,0,.1,0,.2l-1.6,35.6Z"/>
    <path class="st5" d="M73.7,450.9c-.2,0-.4-.2-.5-.4l-7.6-28.7-15.8-18.4c-.2-.2-.2-.5,0-.7.2-.2.5-.2.7,0h0l15.9,18.5c0,0,0,.1,0,.2l7.7,28.8c0,.3,0,.5-.3.6h-.1Z"/>
    <path class="st5" d="M60.6,253s-6.7,16.5-6.5,28.1,9.4,52.7,9.6,54.6-2.5,6.3-1.3,8.5,11.9,7.5,28.1,6.7,19.8-1.9,20.8-4.4c1.3-3.3,2-6.8,1.9-10.4-.2-3.6-.4-39.4-1.9-45.4s-16.2-24.2-16.2-24.2l-25.6-14.8s-6.7-2.3-8.8,1.3Z"/>
    <path class="st3" d="M87.4,351.5c-14.3,0-24.2-4.8-25.5-7.1-.8-1.5,0-3.7.6-5.6.4-1,.6-2,.7-3,0-.4-.6-3.1-1.4-6.9-2.6-12.6-8.1-38.8-8.2-47.7-.2-11.5,6.5-28.1,6.6-28.3,0,0,0,0,0,0,2.3-4,9.1-1.7,9.4-1.6l25.7,14.8c0,0,0,0,.1.1.6.8,14.7,18.4,16.2,24.4,1.2,4.6,1.6,26.7,1.8,38.6,0,3.5.1,6,.2,6.9,0,3.6-.7,7.2-2,10.6-1,2.7-4.2,3.9-21.2,4.8-1,0-2,.1-3,.1ZM61.1,253.2c-.3.8-6.7,16.8-6.5,27.8.2,8.8,5.6,35,8.2,47.6.9,4.4,1.4,6.5,1.4,7,0,1.2-.3,2.3-.8,3.4-.6,1.8-1.2,3.8-.7,4.9,1,1.8,11.4,7.2,27.6,6.5s19.5-1.9,20.3-4.1c1.3-3.2,1.9-6.7,1.9-10.2,0-.9,0-3.4-.2-6.9-.2-11.8-.6-33.8-1.8-38.4-1.4-5.6-15-22.7-16-24l-25.5-14.7h0s-6.2-2.1-8.1,1.1Z"/>
    <path class="st2" d="M118.5,200.7s9.4,8.1,8.7,14.2-4.2,4.2-8.3,16-7.1,16.7-5,22.7,4.2,7.1,4.2,7.1c0,0-4,5-13.1,2.1s-13.5-6.8-13.5-8.9,2.9-3.6,2.9-3.6c0,0,5.4,2.7,7.7,1.1,4.8-3.1,8.6-7.6,10.8-12.9,3.5-7.9,6.3-18.6,6-20.4s-7.3-13.6-7.3-13.6l6.9-3.9Z"/>
    <path class="st3" d="M110.4,264.2c-1.9,0-3.7-.3-5.5-.9-9.1-2.9-13.8-6.9-13.8-9.3s3-4,3.2-4.1c.1,0,.3,0,.5,0,1.4.7,5.5,2.3,7.2,1.2,4.7-3.1,8.4-7.5,10.6-12.7,3.4-7.8,6.3-18.5,5.9-20.1-.3-1.2-4.5-8.8-7.2-13.5,0-.1,0-.3,0-.4,0-.1.1-.2.2-.3l6.9-3.8c.2-.1.4,0,.6,0,.4.3,9.6,8.3,8.8,14.7-.2,2.2-1.2,4.2-2.7,5.8-1.4,1.7-3.4,4.1-5.6,10.3-.9,2.6-1.7,4.8-2.5,6.8-2.7,7.1-4.1,11.1-2.5,15.6,2,5.6,4,6.8,4,6.8.1,0,.2.2.2.4,0,.1,0,.3,0,.4-.1.2-2.7,3.2-8.1,3.2ZM94.5,250.9c-.6.4-2.4,1.6-2.4,3.1s4.1,5.5,13.1,8.4c7.2,2.3,11-.5,12.2-1.6-.8-.7-2.4-2.6-4-7-1.7-4.8-.1-9.1,2.5-16.2.7-2,1.6-4.2,2.5-6.8,2.2-6.4,4.2-8.8,5.8-10.6,1.4-1.4,2.3-3.3,2.5-5.3.7-5.3-6.7-12.2-8.2-13.6l-6.2,3.4c1.4,2.4,6.8,11.7,7.1,13.4.4,1.9-2.6,13-6,20.7-2.3,5.4-6.1,9.9-11,13.1-2.1,1.5-6.7-.5-7.8-1Z"/>
    <path class="st5" d="M96.2,250.1c-1.2,1.6-2.2,3.5-2.9,5.4-.9,2-1.4,4.2-1.7,6.3l-19.6-12.3,6.3-13.3,17.9,13.8Z"/>
    <path class="st3" d="M91.6,262.4c0,0-.2,0-.3,0l-19.6-12.3c-.2-.1-.3-.4-.2-.6l6.3-13.3c0-.1.2-.2.3-.3.1,0,.3,0,.4,0l17.9,13.8c.1,0,.2.2.2.4,0,.1,0,.3-.1.4-1.2,1.6-2.1,3.4-2.8,5.2-.8,2-1.4,4.1-1.7,6.2,0,.2-.1.3-.3.4,0,0-.2,0-.2,0ZM72.6,249.4l18.6,11.6c.3-2,.9-3.9,1.7-5.7.7-1.8,1.6-3.5,2.7-5.1l-17-13.1-5.9,12.3Z"/>
    <polygon class="st5" points="76.4 247.2 97 261.1 96 269 69.5 251.7 76.4 247.2"/>
    <path class="st3" d="M96,269.5c0,0-.2,0-.3,0l-26.5-17.3c-.2-.1-.3-.5-.1-.7,0,0,0-.1.1-.1l6.9-4.4c.2-.1.4-.1.6,0l20.6,13.8c.2.1.2.3.2.5l-1,7.9c0,.2-.1.3-.3.4,0,0-.1,0-.2,0ZM70.4,251.7l25.2,16.4.8-6.8-20-13.5-6,3.8Z"/>
    <path class="st5" d="M112.2,203.2s9.4,14.4,9.2,17.1-3.5,11.9-4.4,16.1-5.6,9.4-9.6,13.5-5.6,5.4-7.9,5.4-7.5-3.3-10.8-5.6-10.2-11.5-10.2-11.5c0,0,5.2-22.1,8.5-26.1s25.2-8.9,25.2-8.9Z"/>
    <path class="st3" d="M99.5,255.8c-2.7,0-8.6-4-11-5.7-3.3-2.3-10-11.3-10.3-11.6,0-.1-.1-.3,0-.4.2-.9,5.3-22.3,8.6-26.4s24.6-8.8,25.5-9c.2,0,.4,0,.5.2,1,1.5,9.5,14.6,9.3,17.4-.1,1.6-1.2,5.3-2.4,9.1-.8,2.6-1.6,5.3-2,7.1-.8,3.4-4,7.9-9.8,13.7-4.2,4.2-5.8,5.5-8.3,5.5ZM79.1,238.1c1,1.3,7,9.2,9.9,11.2,3.8,2.6,8.5,5.5,10.5,5.5s3.6-1.3,7.5-5.2c5.6-5.6,8.7-10,9.5-13.2.4-1.8,1.2-4.4,2-7.1,1-2.9,1.8-5.9,2.4-8.9.1-1.8-5.2-10.8-9-16.5-2.8.6-21.7,5-24.6,8.6s-7.7,23.4-8.2,25.7Z"/>
    <path class="st2" d="M120.2,200.3s-4.4,4-14.2,8.6-16.7,7.3-19,14.2-6.2,22.1-5.6,25.4c.3,1.8,1.3,3.4,2.9,4.4,0,0-1.9,3.6-12.5,4.6s-20.4-4-21.7-13.1,1.9-19.2,5.4-25.2,9.2-12.5,13.5-20,18.1-14.3,31.5-11.7,21.9,9,19.8,12.7Z"/>
    <path class="st3" d="M69.1,258.3c-10.3,0-18.3-5.5-19.5-13.6-1.3-8.9,1.8-19.2,5.4-25.5,1.6-2.8,3.7-5.6,5.9-8.6,2.7-3.6,5.3-7.4,7.6-11.4,4.4-7.8,18.7-14.6,32.1-12,10,2,18.3,6.3,20.2,10.4.5.9.5,2.1,0,3h0c-.2.3-4.6,4.3-14.3,8.8-.8.4-1.6.8-2.4,1.1-8.3,3.9-14.3,6.7-16.4,12.8-2.5,7.6-6.1,22.1-5.6,25.1.2,1.7,1.2,3.2,2.6,4.1.1,0,.2.2.2.3,0,.1,0,.3,0,.4,0,.2-2.2,3.9-12.9,4.9-1,.1-1.9.2-2.8.2ZM94.4,187.6c-11,0-21.4,5.7-25,12.1-2.3,4-4.9,7.8-7.7,11.5-2.2,3-4.2,5.8-5.8,8.5-3.6,6.2-6.6,16.2-5.3,24.9,1.2,8.3,10.2,13.7,21.2,12.6,8.1-.7,11-3.1,11.8-4-1.4-1.1-2.4-2.7-2.7-4.5-.6-3.4,3.3-18.6,5.6-25.6,2.2-6.6,8.4-9.4,16.9-13.4l2.4-1.1c9-4.2,13.5-8,14-8.5.3-.6.3-1.4,0-2-1.5-3.2-8.6-7.7-19.4-9.8-2-.4-4-.6-6-.6h0ZM120.2,200.3h0Z"/>
    <path class="st3" d="M101.9,224.1c-.2,1.1-1,1.9-1.9,1.8s-1.3-1.2-1.1-2.3,1-1.9,1.9-1.8,1.3,1.2,1.1,2.3Z"/>
    <path class="st3" d="M115.4,226.6c-.2,1.1-1.1,1.9-1.9,1.8s-1.3-1.2-1.1-2.3,1.1-1.9,1.9-1.8,1.3,1.2,1.1,2.3Z"/>
    <path class="st3" d="M97.2,218.3c0,0-.2,0-.3,0-.2-.1-.3-.4-.2-.7,0,0,0,0,0,0,0,0,2.8-4.6,9.3-1,.2.1.3.5.2.7-.1.2-.4.3-.6.2-5.7-3.2-7.9.4-8,.6,0,.2-.2.3-.4.3Z"/>
    <path class="st3" d="M109.7,228.9h0c-.3,0-.5-.3-.5-.5,0,0,0,0,0,0,.3-3.2,1.7-6.3,4-8.6.2-.2.5-.2.7,0,0,0,0,0,0,0,.2.2.2.5,0,.7,0,0,0,0,0,0-2.1,2.2-3.4,5-3.7,7.9,0,.3-.2.5-.5.5,0,0,0,0,0,0Z"/>
    <path class="st3" d="M119.1,222c-.2,0-.4-.2-.5-.4-.2-1.1-.6-1.7-1.1-2-.7-.2-1.4,0-1.9.4-.2.2-.5,0-.7-.1-.2-.2,0-.5.1-.7.8-.6,1.9-.7,2.9-.5,1,.5,1.7,1.6,1.8,2.7,0,.3-.1.5-.4.6,0,0,0,0,0,0h-.1Z"/>
    <path class="st3" d="M105.1,238.1c-.7,0-1.5-.1-2.1-.4-.2-.1-.4-.4-.2-.7.1-.2.4-.4.6-.3,0,0,0,0,0,0,1.9.9,4.4-.2,4.4-.2.3-.1.5,0,.7.3.1.3,0,.5-.3.7,0,0,0,0,0,0-1,.4-2,.6-3.1.6Z"/>
    <path class="st3" d="M101.8,242.6h-.2c-5-1.6-7.3-7-7.4-7.2-.1-.3,0-.5.3-.6.3-.1.5,0,.7.3,0,0,2.3,5.2,6.8,6.6.3,0,.4.4.3.6,0,.2-.3.3-.5.3Z"/>
    <path class="st5" d="M161.1,274.7s1.9-4.5,1.9-6.9,0-6.6.8-7.7,2.6-2.4,3.7-4.8.5-4.2,2.4-3.4.5,4.5.5,4.5l6.3-5.6s4.8-6.6,6.3-5.3-.5,4.8-2.1,6.3c-1.2,1.5-2.2,3.2-2.9,5,1.7.9,3.1,2.3,4,4,1.1,2.4,1.9,5,.3,7.9s-5.5,5.5-8.2,6.6c-1.8.8-3.4,2-4.8,3.4l-8.2-4.2Z"/>
    <path class="st3" d="M169.3,279.4c0,0-.2,0-.2,0l-8.2-4.2c-.2-.1-.3-.4-.2-.6,0,0,1.8-4.4,1.8-6.7,0-3.4,0-6.9.9-8,.3-.4.6-.8,1-1.1,1.1-1,2-2.2,2.6-3.6.3-.6.5-1.3.6-2,.2-.9.4-1.5.9-1.8.5-.2,1-.1,1.4.1,1.4.6,1.4,2.3,1.2,3.5l5.1-4.5c.5-.7,4-5.4,6-5.6.4,0,.7,0,1,.3.5.4.7,1,.7,1.6,0,1.9-1.6,4.3-2.8,5.5-1.1,1.3-2,2.8-2.6,4.4,1.6,1,2.9,2.3,3.8,4,1.1,2.5,1.9,5.3.2,8.4-1.8,3.2-6,5.9-8.4,6.8-1.7.8-3.3,1.9-4.6,3.3,0,0-.2.2-.3.2ZM161.8,274.4l7.4,3.9c1.3-1.4,2.9-2.5,4.7-3.3,2.8-1.1,6.5-3.7,7.9-6.4s.7-5.2-.3-7.5c-.9-1.6-2.2-2.9-3.7-3.7-.2-.1-.3-.4-.2-.6.7-1.9,1.7-3.6,3-5.2,1.3-1.3,2.6-3.4,2.5-4.8,0-.3-.1-.6-.4-.9,0,0-.2,0-.3,0-1.3.2-4,3.3-5.4,5.2h0c0,0-6.4,5.6-6.4,5.6-.2.1-.4.1-.6,0-.2-.1-.3-.4-.2-.6.3-.9.9-3.4-.2-3.9-.4-.2-.6-.1-.6-.1s-.3.6-.4,1.1c-.2.7-.4,1.5-.7,2.2-.7,1.4-1.7,2.8-2.8,3.9-.3.3-.6.6-.9,1-.7.9-.7,5.4-.7,7.4s-1.2,5.5-1.7,6.7h0Z"/>
    <path class="st3" d="M166.4,261.4c-.1,0-.2,0-.3-.1-.2-.2-.2-.5,0-.7,0,0,0,0,0,0l4-4.5c.2-.2.5-.2.7,0,.2.2.2.5,0,.7l-4,4.5c0,.1-.2.2-.4.2Z"/>
    <path class="st5" d="M67.6,268.3s-4.7,21.4-1.6,25.7c3.2,4.3,52.1,36.5,55.2,34.3s26.2-17.4,35.1-28.5c5.2-6.3,9.6-13.4,12.9-20.9l-9.2-6.1s-16.4,14-23.8,19.5-10.6,7.1-10.6,7.1c0,0-24.3-22.5-30.4-27.7s-12.2-9.5-19.3-8.5"/>
    <path class="st3" d="M120.9,328.9c-7,0-52.9-31.4-55.3-34.6-3.3-4.4,1.3-25.2,1.5-26,0-.3.3-.4.6-.4,0,0,0,0,0,0,.3,0,.4.3.4.6-1.3,5.9-4.2,21.9-1.7,25.2,1.5,1.9,13.7,10.6,27.2,19.3,17.2,11,26.2,15.5,27.3,14.9,6.1-4.1,26.7-18.2,35-28.4,5.1-6.2,9.4-13.1,12.7-20.4l-8.6-5.6c-2.2,1.9-16.7,14.2-23.5,19.3-7.4,5.5-10.5,7.1-10.7,7.2-.2,0-.4,0-.6,0-.2-.2-24.4-22.5-30.4-27.7-6.6-5.7-12.3-9.3-18.9-8.3-.3,0-.5-.1-.6-.4,0-.3.1-.5.4-.6,7-1,12.9,2.7,19.7,8.6,5.7,4.9,27.5,25.1,30.1,27.5,3.6-2.1,7-4.4,10.2-6.9,7.3-5.5,23.6-19.4,23.8-19.5.2-.1.4-.1.6,0l9.2,6.1c.2.1.3.4.2.6-3.4,7.5-7.8,14.6-13,21-8.1,10.1-27.4,23.4-35.2,28.6-.2,0-.4.1-.7,0Z"/>
    <path class="st3" d="M81,306.6c-5.7-.1-11.4-.6-17.1-1.4-.3,0-.5-.3-.4-.5,0,0,0,0,0,0,0-.3.3-.5.5-.4,0,0,0,0,0,0,.1,0,11.7,1.6,18.7,1.3.3,0,.5.2.5.5,0,.3-.2.5-.5.5,0,0,0,0,0,0-.6,0-1.2,0-1.7,0Z"/>
    <path class="st3" d="M70.8,313.5c-.2,0-.4-.2-.5-.4,0-.3.1-.5.4-.6,6-1.3,11.8-3.1,11.8-3.2.3,0,.6,0,.7.4,0,.3,0,.6-.3.6,0,0-5.9,1.9-11.9,3.2h-.1Z"/>
    <path class="st3" d="M164,286.8c-.1,0-.2,0-.3-.1l-9.5-7.7c-.2-.2-.3-.5,0-.7.2-.2.5-.3.7,0l9.5,7.7c.2.2.2.5,0,.7,0,.1-.3.2-.4.2Z"/>
    <line class="st0" x1="125.7" y1="299.5" x2="120.4" y2="303.5"/>
    <path class="st3" d="M120.4,304c-.2,0-.3,0-.4-.2-.2-.2-.1-.5,0-.7h0l5.3-4c.2-.2.5-.1.7.1.2.2.1.5-.1.7l-5.3,4c0,0-.2,0-.3,0Z"/>
  </g>
  <g id="freepik--Device--inject-56">
    <rect class="st1" x="65.9" y="449.3" width="89.2" height="2.9"/>
    <path class="st3" d="M155.1,452.7h-89.2c-.3,0-.5-.2-.5-.5v-2.9c0-.3.2-.5.5-.5h89.2c.3,0,.5.2.5.5v2.9c0,.3-.2.5-.5.5ZM66.4,451.7h88.2v-1.9h-88.2v1.9Z"/>
    <polygon class="st7" points="231.3 393.3 142.1 393.3 128.6 452.2 217.9 452.2 231.3 393.3"/>
    <path class="st3" d="M217.9,452.7h-89.3c-.2,0-.3,0-.4-.2,0-.1-.1-.3,0-.4l13.4-58.9c0-.2.3-.4.5-.4h89.2c.3,0,.5.2.5.5,0,0,0,0,0,0l-13.4,58.9c0,.2-.3.4-.5.4ZM129.3,451.7h88.2l13.2-57.9h-88.2l-13.2,57.9Z"/>
  </g>
  <g id="freepik--Table--inject-56">
    <path class="st3" d="M734.6,453H17.2c-.3,0-.5-.2-.5-.5s.2-.5.5-.5h717.4c.3,0,.5.2.5.5s-.2.5-.5.5Z"/>
  </g>
  <g id="freepik--mug-2--inject-56">
    <path class="st4" d="M547.9,446.5h-6.5v-5h6.5c2.2,0,4.1-1.8,4.1-4.1v-7.5c0-2.2-1.8-4.1-4.1-4.1h-6.1v-5h6.1c5,0,9.1,4.1,9.1,9.1v7.5c0,5-4.1,9-9.1,9Z"/>
    <path class="st3" d="M547.9,447h-6.5c-.3,0-.5-.2-.5-.5v-5c0-.3.2-.5.5-.5h6.5c2,0,3.6-1.6,3.6-3.6v-7.5c0-2-1.6-3.6-3.6-3.6h-6.2c-.3,0-.5-.2-.5-.5v-5c0-.3.2-.5.5-.5h6.2c5.3,0,9.6,4.3,9.6,9.6v7.5c0,5.3-4.3,9.5-9.6,9.5ZM541.9,446h6c4.7,0,8.6-3.8,8.6-8.6v-7.5c0-4.7-3.8-8.6-8.6-8.6h-5.7v4h5.7c2.5,0,4.6,2,4.6,4.6v7.5c0,2.5-2,4.6-4.6,4.6h-6v4Z"/>
    <rect class="st4" x="515.7" y="417" width="28.5" height="35.5"/>
    <path class="st3" d="M544.2,453h-28.5c-.3,0-.5-.2-.5-.5v-35.5c0-.3.2-.5.5-.5h28.5c.3,0,.5.2.5.5v35.5c0,.3-.2.5-.5.5ZM516.2,452h27.5v-34.5h-27.5v34.5Z"/>
  </g>
  <g id="freepik--mug-1--inject-56">
    <path class="st3" d="M330.4,446.5h-6.5v-5h6.5c2.2,0,4.1-1.8,4.1-4.1v-7.5c0-2.2-1.8-4.1-4.1-4.1h-6.1v-5h6.1c5,0,9.1,4.1,9.1,9.1v7.5c0,5-4.1,9-9.1,9Z"/>
    <path class="st3" d="M330.4,447h-6.5c-.3,0-.5-.2-.5-.5v-5c0-.3.2-.5.5-.5h6.5c2,0,3.6-1.6,3.6-3.6v-7.5c0-2-1.6-3.6-3.6-3.6h-6.1c-.3,0-.5-.2-.5-.5v-5c0-.3.2-.5.5-.5h6.1c5.3,0,9.6,4.3,9.6,9.5,0,0,0,0,0,0v7.5c0,5.3-4.3,9.5-9.6,9.5ZM324.4,446h6c4.7,0,8.6-3.8,8.6-8.6v-7.5c0-4.7-3.8-8.6-8.6-8.6h-5.6v4h5.6c2.5,0,4.6,2,4.6,4.5,0,0,0,0,0,0v7.5c0,2.5-2,4.6-4.6,4.6h-6v4Z"/>
    <rect class="st3" x="298.2" y="417" width="28.5" height="35.5"/>
    <path class="st3" d="M326.7,453h-28.5c-.3,0-.5-.2-.5-.5v-35.5c0-.3.2-.5.5-.5h28.5c.3,0,.5.2.5.5v35.5c0,.3-.2.5-.5.5ZM298.7,452h27.5v-34.5h-27.5v34.5Z"/>
  </g>
</svg>